<?xml version="1.0" encoding="UTF-8" standalone="no"?>
<svg
   xmlns:dc="http://purl.org/dc/elements/1.1/"
   xmlns:cc="http://creativecommons.org/ns#"
   xmlns:rdf="http://www.w3.org/1999/02/22-rdf-syntax-ns#"
   xmlns:svg="http://www.w3.org/2000/svg"
   xmlns="http://www.w3.org/2000/svg"
   version="1.1"
   id="svg3578"
   viewBox="0 0 807.35768 96.667394"
   height="27.281687mm"
   width="227.85428mm">
  <defs
     id="defs3580" />
  <metadata
     id="metadata3583">
    <rdf:RDF>
      <cc:Work
         rdf:about="">
        <dc:format>image/svg+xml</dc:format>
        <dc:type
           rdf:resource="http://purl.org/dc/dcmitype/StillImage" />
        <dc:title></dc:title>
      </cc:Work>
    </rdf:RDF>
  </metadata>
  <g
     transform="translate(-326.32006,-366.07119)"
     id="layer1">
    <g
       transform="matrix(2.1381861,0,0,2.1381861,-169.03993,-540.21182)"
       id="g7">
      <g
         id="g9">
        <g
           id="g11">
          <path
             style="fill:#ffffff"
             id="path13"
             d="m 361.529,426.299 -0.987,1.834 c -2.209,-1.41 -4.794,-2.068 -7.473,-2.068 -7.849,0 -14.475,6.58 -14.475,14.428 0,7.85 6.626,14.428 14.475,14.428 2.679,0 5.311,-0.752 7.566,-2.162 l 0.94,1.881 c -2.585,1.551 -5.499,2.35 -8.506,2.35 -9.07,0 -16.496,-7.379 -16.496,-16.496 0,-9.117 7.426,-16.543 16.496,-16.543 3.008,-0.002 5.922,0.844 8.46,2.348 z" />
          <path
             style="fill:#ffffff"
             id="path15"
             d="m 387.487,444.957 c 0,6.58 -5.217,11.938 -11.561,11.938 -6.392,0 -11.608,-5.357 -11.608,-11.938 0,-6.581 5.217,-11.938 11.608,-11.938 6.344,10e-4 11.561,5.358 11.561,11.938 z m -1.739,0 c 0,-5.545 -4.418,-10.057 -9.822,-10.057 -5.452,0 -9.87,4.512 -9.87,10.057 0,5.545 4.417,10.057 9.87,10.057 5.404,0 9.822,-4.512 9.822,-10.057 z" />
          <path
             style="fill:#ffffff"
             id="path17"
             d="m 414.366,443.078 0,13.816 -1.88,0 0,-14.053 c -1.363,-4.512 -4.935,-7.332 -9.165,-7.332 -3.854,0 -7.237,2.352 -8.835,6.439 l -0.047,14.945 -1.974,0 0,-23.498 1.974,0 0,4.887 c 0,0 0.893,-1.41 2.491,-2.537 2.162,-1.551 4.089,-2.209 6.392,-2.209 3.478,0 6.721,1.738 8.836,4.84 l 1.269,1.834 1.269,-1.834 c 2.162,-3.102 5.311,-4.84 8.882,-4.84 5.922,0 10.434,5.17 10.95,10.949 0.047,0.799 0.047,1.457 -0.047,12.408 l -1.833,0 0.048,-13.064 c -0.611,-4.795 -4.936,-8.32 -9.118,-8.32 -4.277,10e-4 -7.99,2.962 -9.212,7.569 z" />
          <path
             style="fill:#ffffff"
             id="path19"
             d="m 444.393,453.934 -2.35,-1.975 0,17.107 -1.834,0 0,-35.342 1.834,0 0,4.512 2.35,-1.975 c 2.021,-1.645 4.418,-2.537 6.955,-2.537 6.062,0 11.045,5.123 11.045,11.373 0,6.252 -4.982,11.373 -11.045,11.373 -2.537,10e-4 -4.935,-0.892 -6.955,-2.536 z m -2.209,-10.057 0,2.443 c 0.611,4.793 4.465,7.988 9.164,7.988 5.17,0 9.117,-3.947 9.117,-9.211 0,-5.264 -3.947,-9.352 -9.117,-9.352 -4.7,10e-4 -8.553,3.337 -9.164,8.132 z" />
          <path
             style="fill:#ffffff"
             id="path21"
             d="m 486.672,456.848 0,-4.605 -2.443,2.02 c -2.021,1.693 -4.512,2.586 -7.145,2.586 -6.25,0 -11.326,-5.264 -11.326,-11.703 0,-6.484 5.076,-11.701 11.326,-11.701 2.633,0 5.123,0.893 7.145,2.584 l 2.443,2.021 0,-4.652 2.021,0 0,23.451 -2.021,0 z m -0.234,-12.784 0,-0.188 c -0.658,-4.936 -4.512,-8.367 -9.354,-8.367 -5.311,0 -9.352,4.184 -9.352,9.635 0,5.453 4.041,9.588 9.352,9.588 4.842,0 8.695,-3.432 9.354,-8.318 l 0,-2.35 z" />
          <path
             style="fill:#ffffff"
             id="path23"
             d="m 495.664,441.949 0.048,14.898 -1.786,0 0,-23.404 1.786,0 0,4.793 c 0,0 1.175,-1.645 2.35,-2.584 1.833,-1.457 4.042,-2.303 6.298,-2.303 3.618,0 6.908,2.02 8.835,5.357 0.893,1.504 1.457,3.242 1.598,5.027 0,0.799 0.095,2.633 -0.047,13.066 l -1.691,0 -0.047,-13.676 c -0.376,-4.23 -4.653,-8.084 -8.647,-8.084 -3.95,0.002 -7.521,2.869 -8.697,6.91 z" />
          <path
             style="fill:#ffffff"
             id="path25"
             d="m 520.062,425.078 c 0,-0.611 0.518,-1.082 1.081,-1.082 0.611,0 1.081,0.471 1.081,1.082 0,0.562 -0.47,1.033 -1.081,1.033 -0.564,0 -1.081,-0.47 -1.081,-1.033 z m 1.879,8.272 0,23.592 -1.88,0 0,-23.592 1.88,0 z" />
          <path
             style="fill:#ffffff"
             id="path27"
             d="m 547.461,456.848 0,-4.605 -2.444,2.02 c -2.021,1.693 -4.512,2.586 -7.144,2.586 -6.25,0 -11.326,-5.264 -11.326,-11.703 0,-6.484 5.076,-11.701 11.326,-11.701 2.632,0 5.123,0.893 7.144,2.584 l 2.444,2.021 0,-4.652 2.021,0 0,23.451 -2.021,0 z m -0.235,-12.784 0,-0.188 c -0.658,-4.936 -4.512,-8.367 -9.353,-8.367 -5.311,0 -9.353,4.184 -9.353,9.635 0,5.453 4.042,9.588 9.353,9.588 4.841,0 8.694,-3.432 9.353,-8.318 l 0,-2.35 z" />
          <path
             style="fill:#ffffff"
             id="path29"
             d="m 557.055,455.719 c 0,0.611 -0.423,1.035 -1.034,1.035 -0.564,0 -1.034,-0.424 -1.034,-1.035 0,-0.562 0.47,-1.033 1.034,-1.033 0.611,0 1.034,0.47 1.034,1.033 z" />
          <path
             style="fill:#ffffff"
             id="path31"
             d="m 571.214,456.801 -14.006,-32.852 2.068,0 11.938,28.01 12.031,-28.01 1.974,0 -14.005,32.852 z" />
          <path
             style="fill:#ffffff"
             id="path33"
             d="m 598.783,444.723 -6.862,0.047 0,12.172 -1.785,0 0,-33.086 8.647,0 c 5.64,0.094 10.245,4.793 10.245,10.434 0,3.525 -1.739,6.814 -4.7,8.74 l -1.033,0.658 5.968,13.254 -1.974,0 -5.687,-12.596 c -1.268,0.377 -2.349,0.377 -2.819,0.377 z m -0.188,-1.741 c 4.794,0 8.694,-3.9 8.694,-8.693 0,-4.795 -3.9,-8.695 -8.694,-8.695 l -6.674,0 0,17.389 6.674,0 z" />
        </g>
      </g>
      <g
         id="g35">
        <g
           id="g37">
          <path
             style="fill:#ffffff"
             d="m 275.376,428.123 c 7.881,0 14.269,6.389 14.269,14.271 0,7.881 -6.388,14.268 -14.269,14.268 -7.88,0 -14.27,-6.387 -14.27,-14.268 0,-7.882 6.39,-14.271 14.27,-14.271"
             id="path316_3_" />
          <g
             id="g40">
            <path
               id="path42"
               d="m 270.534,455.521 c -0.028,-0.043 -0.104,-0.119 -0.148,-0.152 -0.03,-0.023 -0.054,-0.035 -0.085,-0.062 -0.034,-0.031 -0.034,-0.043 -0.07,-0.08 l -0.326,-0.268 c -0.057,-0.041 -0.138,-0.07 -0.188,-0.109 -0.075,-0.059 -0.049,-0.098 -0.201,-0.064 -0.081,0.018 -0.14,0.031 -0.196,0.08 -0.043,0.035 -0.094,0.125 -0.097,0.205 -0.008,0.184 0.426,0.283 0.561,0.33 0.199,0.07 0.605,0.385 0.803,0.367 -0.012,-0.08 -0.025,-0.012 -0.027,-0.119 -0.004,-0.055 -10e-4,-0.09 -0.026,-0.128 z" />
            <path
               id="path44"
               d="m 272.27,435.984 c 0.015,-0.236 -0.15,-0.162 -0.126,-0.275 0.024,-0.105 0.236,0 0.093,-0.225 -0.048,-0.074 -0.034,-0.08 -0.035,-0.154 -0.002,-0.074 -0.021,-0.084 10e-4,-0.145 0.037,-0.115 0.027,-0.236 0.122,-0.383 0.033,-0.057 0.145,-0.205 0.088,-0.24 -0.08,-0.033 -0.173,0.062 -0.235,0.102 -0.075,0.049 -0.072,0.021 -0.13,0.047 -0.051,0.016 -0.036,0.045 -0.127,0.062 -0.03,-0.131 0.13,-0.152 0.077,-0.268 -0.095,0.02 -0.017,0.074 -0.114,0.092 -0.04,-0.029 -0.029,-0.059 -0.082,-0.059 -0.052,0 -0.073,0.023 -0.1,-0.02 0.046,-0.068 0.227,-0.033 0.318,-0.127 0.053,-0.055 -0.004,-0.09 -0.049,-0.102 -0.084,-0.031 -0.073,-0.055 -0.126,-0.078 -0.133,-0.066 -0.536,0.105 -0.639,0.223 -0.08,0.092 -0.092,0.152 -0.219,0.213 -0.045,0.021 -0.303,0.055 -0.35,0.045 -0.069,-0.012 -0.062,-0.055 -0.155,0.008 -0.024,0.016 -0.045,0.031 -0.046,0.055 -0.005,0.057 0.026,0.057 0.048,0.07 0.063,0.031 0.042,0.107 -0.006,0.133 -0.079,0.035 -0.087,-0.02 -0.133,-0.051 -0.094,0.018 -0.208,0.158 -0.217,0.225 0.065,0.027 0.116,-0.033 0.159,0.08 0.081,0.201 -0.136,0.25 -0.241,0.283 -0.234,0.08 -0.141,0.012 -0.209,0.018 -0.055,0.018 -0.063,0.045 -0.049,0.105 0.046,0.01 0.07,-0.006 0.101,0.041 0.126,0.182 -0.051,0.303 0.039,0.373 0.034,0.027 0.11,-0.012 0.174,-0.014 0.08,0 0.091,0.025 0.146,0.057 0.123,0.07 0.154,0.086 0.204,0.264 0.034,0.129 0.052,0.258 0.034,0.371 -0.035,0.25 0.094,0.207 0.106,0.34 -0.03,0.074 -0.135,0.086 -0.093,0.189 l 0.085,-0.021 c 0.035,0.047 0.023,0.074 0.072,0.105 0.15,0.104 -0.065,0.143 -0.109,0.275 -0.055,0.17 0.015,0.277 0.06,0.395 0.021,0.053 0.029,0.098 0.041,0.154 0.025,0.094 0.073,0.197 0.105,0.287 0.062,0.18 0.062,0.105 0.165,0.172 0.045,0.021 0.143,0.154 0.185,0.027 0.051,-0.152 0.037,-0.354 0.042,-0.365 0.007,-0.018 0.046,-0.066 0.061,-0.094 0.082,-0.158 -0.072,-0.223 0.079,-0.34 0.072,-0.057 0.189,-0.014 0.307,-0.209 0.04,-0.064 0.055,-0.139 0.093,-0.205 0.062,-0.105 0.256,-0.119 0.403,-0.283 0.039,-0.039 0.129,-0.135 0.125,-0.188 -0.071,-0.035 -0.129,-0.006 -0.189,-0.016 -0.013,-0.049 0.011,-0.033 0.021,-0.086 0.01,-0.055 -0.014,-0.072 0.049,-0.08 0.042,0.043 0.079,0.16 0.154,0.088 0.033,-0.035 0.01,-0.127 -0.013,-0.166 -0.034,-0.057 -0.086,-0.061 -0.108,-0.125 0.043,-0.012 0.088,0.004 0.088,-0.045 0.003,-0.055 -0.035,-0.072 -0.043,-0.131 0.025,-0.043 0.054,-0.055 0.099,-0.088 l -0.03,-0.088 c 0.025,-0.031 0.055,-0.051 0.08,-0.084 -0.028,-0.079 -0.055,-0.042 -0.051,-0.144 z" />
            <path
               id="path46"
               d="m 282.381,454.639 c -0.15,0.082 -0.29,0.199 -0.446,0.277 -0.077,0.035 -0.18,0.07 -0.28,0.045 -0.222,-0.057 -0.163,0.025 -0.284,0.029 l 0,0 c -0.026,-0.037 -0.022,-0.039 -0.046,-0.082 -0.192,-0.016 -0.272,0.131 -0.523,0.064 -0.209,-0.053 -0.307,-0.084 -0.5,0.027 -0.169,0.098 -0.176,0.188 -0.393,0.232 -0.183,0.039 -0.374,0.057 -0.529,0.119 -0.143,0.057 -0.296,0.207 -0.406,0.227 -0.236,0.045 -0.218,-0.115 -0.549,0.027 -0.208,0.094 -0.821,0.213 -1.07,0.197 -0.248,-0.012 -1.274,0.01 -1.503,0.078 -0.082,0.023 -0.157,0.068 -0.256,0.068 -0.122,0 -0.159,-0.057 -0.265,-0.066 -0.107,-0.012 -0.174,0.039 -0.277,0.041 -0.191,0.006 -0.386,-0.047 -0.559,0.043 -0.327,0.172 -0.195,0.072 -0.522,0.119 -0.384,0.055 -0.461,0.143 -0.752,0.201 -0.104,0.02 -0.187,0.072 -0.187,0.184 5.297,0.873 9.186,-1.424 10.317,-2.25 -0.12,-0.073 -0.866,0.365 -0.97,0.42 z" />
            <path
               id="path48"
               d="m 269.225,435.945 c 0.092,0.006 0.128,0.076 0.221,-0.041 0.059,-0.078 -0.039,-0.078 0.048,-0.174 0.024,-0.025 0.02,-0.025 0.034,-0.051 0.037,-0.074 0.109,-0.049 0.163,-0.182 0.034,-0.078 0.042,-0.152 0.114,-0.207 0.09,-0.07 0.063,0.008 0.193,-0.16 0.062,-0.078 0.078,-0.104 0.165,-0.18 0.083,-0.072 0.106,-0.104 0.156,-0.184 0.05,-0.082 0.256,-0.148 0.066,-0.291 -0.033,-0.025 -0.073,-0.027 -0.122,-0.027 -0.304,0 -0.291,0.045 -0.517,0.182 -0.218,0.131 -0.119,0.037 -0.333,0.215 -0.054,0.045 -0.065,0.039 -0.035,0.117 0.083,0.016 0.258,-0.02 0.361,-0.021 0.01,0.09 -0.01,0.146 -0.096,0.176 -0.146,0.049 -0.116,-0.01 -0.197,-0.047 -0.054,0.014 -0.076,0.049 -0.072,0.1 0.007,0.096 0.005,0.068 -0.013,0.146 -0.013,0.068 0.007,0.076 -0.065,0.113 -0.051,0.027 -0.073,0.061 -0.095,0.102 0.026,0.131 0.091,0.115 -0.021,0.236 -0.129,0.139 -0.242,0.051 -0.203,0.131 0.027,0.061 0.231,0.043 0.248,0.047 z" />
            <path
               id="path50"
               d="m 269.124,435.508 c 0.043,-0.023 0.083,-0.092 0.108,-0.123 0.034,-0.043 0.093,-0.076 0.1,-0.127 0.008,-0.039 -0.013,-0.055 -0.007,-0.096 0.002,-0.035 0.024,-0.051 0.024,-0.08 0.002,-0.07 -0.091,-0.129 -0.124,-0.09 -0.111,0.131 -0.023,0.314 -0.193,0.443 -0.085,0.069 0.022,0.108 0.092,0.073 z" />
            <path
               id="path52"
               d="m 289.18,444.639 c 0.025,-0.064 -0.037,-0.043 -0.038,-0.061 0,-0.021 0.018,-0.061 0.02,-0.08 0.006,-0.074 -0.067,-0.047 -0.118,-0.057 -0.014,-0.006 -0.022,-0.018 -0.038,-0.018 -0.019,0 -0.048,0.01 -0.061,0.002 -0.02,-0.002 -0.017,-0.035 -0.043,-0.021 -0.026,0.01 -0.083,0.061 -0.119,0.1 -0.053,0.059 -0.131,0.18 -0.163,0.191 -0.025,0.012 -0.008,-0.07 0.008,-0.107 0.014,-0.035 0.037,-0.07 0.047,-0.096 0.02,-0.051 -0.017,-0.104 -0.062,-0.072 -0.051,0.031 -0.129,0.164 -0.143,0.236 -0.007,0.027 0.017,0.025 0.006,0.055 -0.008,0.031 -0.028,0.059 -0.033,0.076 -0.03,0.105 0.101,0.018 0.136,0.051 0.01,0.006 0.007,0.043 0.013,0.053 0.007,0.008 0.027,0 0.029,0.02 0.002,0.016 -0.009,0.088 -0.039,0.152 -0.031,0.057 -0.113,0.125 -0.14,0.209 -0.032,0.098 0.103,-0.076 0.136,-0.088 0.03,-0.01 0.011,0.076 0.04,0.076 0.027,0 0.066,-0.043 0.11,-0.064 0.071,-0.086 0.12,-0.215 0.178,-0.256 0.033,-0.029 0.062,-0.014 0.068,0.004 0.012,0.037 -0.017,0.146 0.001,0.174 0.015,0.025 0.054,-0.016 0.093,-0.023 0.027,-0.008 0.039,0.033 0.065,-0.018 0.052,-0.092 -0.01,-0.17 -0.029,-0.168 0.024,-0.102 -0.044,-0.053 -10e-4,-0.15 0.024,-0.052 0.058,-0.075 0.077,-0.12 z" />
            <path
               id="path54"
               d="m 287.928,445.461 c 0.026,-0.031 0.043,-0.094 0.065,-0.146 -0.007,-0.066 0.026,-0.182 0.021,-0.252 0.048,-0.082 0.135,-0.119 0.165,-0.209 -0.065,0.002 -0.167,0.123 -0.213,0.117 -0.016,0 -0.024,-0.064 -0.049,-0.055 -0.053,0.018 -0.078,0.131 -0.109,0.193 -0.022,0.043 -0.064,0.094 -0.074,0.131 -0.011,0.049 0.023,0.051 0.012,0.111 -0.014,0.068 -0.081,0.178 -0.048,0.184 0.065,0.021 0.116,-0.291 0.186,-0.328 0.006,0.072 -0.041,0.303 0.044,0.254 z" />
            <path
               id="path56"
               d="m 288.77,446.348 c 0.007,-0.072 -0.006,-0.139 0.005,-0.225 0.007,-0.045 0.03,-0.107 0.036,-0.156 0.013,-0.125 -0.044,-0.076 -0.066,-0.111 0.039,-0.184 0.058,-0.352 0.04,-0.416 -0.054,0.064 -0.107,0.203 -0.142,0.32 -0.013,0.041 -0.033,0.088 -0.045,0.135 -0.035,0.135 -0.066,0.299 -0.118,0.453 -0.046,0.133 -0.112,0.291 -0.152,0.309 -0.034,0.014 -0.033,-0.076 -0.049,-0.109 -0.007,-0.004 -0.025,-0.004 -0.032,-0.021 -0.011,-0.012 -0.02,-0.064 -0.038,-0.092 -0.025,-0.043 -0.079,-0.064 -0.057,-0.162 0.019,-0.078 0.054,-0.109 0.09,-0.152 0.02,-0.049 0.013,-0.061 0.025,-0.1 0.018,-0.059 0.055,-0.111 0.062,-0.154 0.015,-0.1 -0.068,0.016 -0.104,0.033 -0.063,0.031 -0.095,-0.047 -0.134,-0.033 -0.028,0.039 -0.017,0.053 -0.038,0.104 -0.044,0.076 -0.067,0.051 -0.108,0.086 -0.048,0.043 -0.091,0.146 -0.138,0.238 -0.03,0.061 -0.073,0.166 -0.096,0.186 -0.062,0.057 -0.046,-0.098 -0.089,-0.09 -0.012,0.002 -0.042,0.033 -0.06,0.055 -0.032,0.037 -0.083,0.102 -0.11,0.146 -0.041,0.062 -0.07,0.152 -0.107,0.215 -0.018,0.033 -0.062,0.084 -0.08,0.1 -0.018,0.016 -0.025,-0.002 -0.042,0.018 -0.039,0.041 -0.058,0.123 -0.1,0.236 -0.036,0.088 -0.117,0.248 -0.169,0.312 -0.047,0.061 -0.082,0.061 -0.137,0.094 -0.053,0.039 -0.124,0.127 -0.164,0.152 -0.013,0.006 -0.03,-0.002 -0.047,0.01 -0.07,0.041 -0.172,0.197 -0.266,0.287 -0.027,0.025 -0.09,0.076 -0.119,0.127 -0.021,0.035 -0.059,0.131 -0.086,0.182 -0.06,0.111 -0.103,0.158 -0.133,0.238 -0.042,0.117 -0.016,0.123 -0.065,0.221 -0.032,0.062 -0.072,0.074 -0.105,0.145 -0.015,0.037 -0.019,0.088 -0.038,0.146 -0.013,0.041 -0.034,0.086 -0.042,0.119 -0.026,0.092 -0.021,0.158 -0.047,0.24 -0.019,0.064 -0.059,0.133 -0.078,0.191 -0.025,0.076 -0.019,0.141 -0.035,0.197 -0.021,0.072 -0.087,0.186 -0.123,0.236 -0.031,0.045 -0.105,0.094 -0.095,0.145 0.013,0.068 0.084,0.07 0.129,0.104 0.198,0 0.257,-0.129 0.387,-0.195 0.132,-0.064 0.276,-0.041 0.413,-0.078 0.082,-0.08 0.225,-0.221 0.3,-0.262 0.022,-0.008 0.046,0 0.07,-0.006 0.091,-0.035 0.179,-0.168 0.294,-0.15 0.027,0.004 0.107,0.055 0.127,0.082 0.02,0.025 0.058,0.172 0.063,0.205 0.009,0.043 -0.011,0.098 0.021,0.111 0.034,0.004 0.053,-0.064 0.078,-0.096 0.024,-0.031 0.054,-0.049 0.076,-0.068 -0.009,0.025 -0.012,0.053 -0.009,0.098 0.033,0.025 0.035,0.08 0.026,0.131 0.007,0.018 0.017,0.031 0.025,0.043 0.58,-0.906 1.055,-1.883 1.418,-2.916 0.002,-0.018 0.007,-0.041 0.007,-0.057 0.003,-0.074 -0.006,-0.105 0.01,-0.205 -0.017,-0.137 -0.079,-0.104 -0.088,-0.229 -0.003,-0.1 0.033,-0.229 0.049,-0.367 z" />
            <path
               id="path58"
               d="m 286.985,446.004 c 0.048,-0.008 0.089,0.023 0.134,0.02 0.037,-0.004 0.074,-0.02 0.106,-0.02 0.034,-0.002 0.065,0.027 0.105,-0.043 -0.003,-0.066 -0.068,-0.045 -0.102,-0.066 0.003,-0.033 0.015,-0.053 0.007,-0.072 -0.05,0.029 -0.083,-0.014 -0.127,0.004 -0.019,0.01 -0.038,0.037 -0.058,0.051 -0.087,0.049 -0.127,-0.031 -0.195,-0.018 -0.053,0.006 -0.118,0.047 -0.118,0.1 0,0.057 0.127,0.084 0.16,0.078 0.028,-0.003 0.06,-0.028 0.088,-0.034 z" />
            <path
               id="path60"
               d="m 287.519,445.383 c 0.049,-0.066 0.051,-0.16 0.087,-0.24 0.027,-0.066 0.079,-0.09 0.112,-0.152 0.022,-0.07 0.006,-0.07 0.033,-0.119 0.027,-0.057 0.098,-0.074 0.115,-0.125 0.008,-0.021 -0.021,-0.053 -0.027,-0.086 -0.003,-0.033 -0.006,-0.078 -0.002,-0.105 0.021,-0.15 0.112,-0.189 0.177,-0.316 -0.011,-0.041 -0.065,-0.033 -0.083,-0.066 0.006,-0.055 -0.048,-0.162 -0.114,-0.076 -0.076,0.1 -0.094,0.191 -0.175,0.277 -0.032,0.033 -0.062,0.043 -0.098,0.082 -0.033,0.029 -0.056,0.088 -0.081,0.125 -0.027,0.041 -0.059,0.092 -0.091,0.115 -0.032,0.023 -0.072,0.031 -0.094,0.055 -0.042,0.045 -0.041,0.117 -0.086,0.148 -0.022,0.012 -0.054,-0.006 -0.087,0.01 -0.081,0.045 -0.077,0.225 -0.054,0.295 0.014,0.051 0.048,0.061 0.054,0.1 0.006,0.039 -0.005,0.107 0.021,0.125 0.013,0.008 0.042,-0.012 0.07,-0.008 0.023,0.002 0.037,0.025 0.054,0.02 0.021,-0.004 0.048,-0.035 0.069,-0.039 0.056,-0.018 0.075,0.045 0.107,0.039 0.032,-0.006 0.069,-0.053 0.093,-0.059 z" />
            <path
               id="path62"
               d="m 286.455,445.158 c -0.039,-0.018 -0.083,-0.016 -0.111,-0.031 -0.022,-0.01 -0.042,-0.045 -0.07,-0.064 -0.026,-0.02 -0.06,-0.025 -0.085,-0.043 -0.046,-0.031 -0.08,-0.107 -0.123,-0.111 -0.021,-0.002 -0.055,0.025 -0.085,0.025 -0.045,0.006 -0.071,-0.035 -0.095,0.008 0.011,0.133 0.126,0.139 0.188,0.209 0.014,0.016 0.023,0.045 0.04,0.061 0.022,0.02 0.056,0.025 0.077,0.055 0.021,0.033 0.024,0.086 0.046,0.121 0.024,0.043 0.067,0.059 0.092,0.096 0.027,0.043 0.037,0.102 0.06,0.15 0.017,0.029 0.048,0.053 0.073,0.076 0.068,0.076 0.129,0.143 0.202,0.193 0.03,-0.014 0.062,-0.021 0.083,-0.047 0.033,-0.055 0.009,-0.137 0.032,-0.232 0.015,-0.061 0.058,-0.074 0.062,-0.117 10e-4,-0.025 -0.043,-0.096 -0.056,-0.096 -0.033,0.006 -0.035,0.064 -0.066,0.064 -0.031,0.006 -0.032,-0.043 -0.054,-0.07 -0.018,-0.018 -0.046,-0.02 -0.053,-0.047 -0.002,-0.018 0.008,-0.055 0.005,-0.078 -0.015,-0.087 -0.109,-0.096 -0.162,-0.122 z" />
            <path
               id="path64"
               d="m 279.744,449.969 c 0.005,0.045 -0.009,0.094 0,0.131 0.018,0.07 0.083,0.123 0.165,0.109 0.033,-0.006 0.156,-0.061 0.189,-0.086 0.09,-0.072 0.121,-0.266 0.18,-0.4 0.015,-0.035 0.044,-0.066 0.061,-0.102 0.045,-0.104 0.081,-0.232 0.134,-0.352 0.06,-0.139 0.126,-0.283 0.131,-0.436 0.019,-0.043 0.082,-0.064 0.09,-0.123 0.003,-0.018 -0.018,-0.059 -0.024,-0.094 -0.019,-0.113 -0.065,-0.275 -0.156,-0.217 -0.03,0.029 -0.021,0.072 -0.04,0.104 -0.02,0.027 -0.063,0.039 -0.078,0.064 -0.026,0.039 -0.025,0.088 -0.057,0.137 -0.037,0.055 -0.11,0.113 -0.163,0.15 -0.062,0.047 -0.15,0.059 -0.215,0.117 -0.043,0.041 -0.084,0.141 -0.09,0.199 -0.012,0.094 0.032,0.174 0.024,0.268 -0.013,0.119 -0.152,0.213 -0.176,0.363 -0.009,0.068 0.02,0.111 0.025,0.168 z" />
            <path
               id="path66"
               d="m 285.552,443.453 c 0.03,0.021 0.074,0.025 0.098,0.049 0.012,0.012 0.015,0.037 0.03,0.055 0.036,0.041 0.083,0.053 0.082,0.123 -10e-4,0.035 -0.023,0.076 -0.019,0.107 0.005,0.033 0.048,0.049 0.082,0.037 0.066,-0.02 0.121,-0.139 0.171,-0.146 0.047,-0.01 0.062,0.1 0.077,0.158 0.01,0.035 0.021,0.061 0.031,0.092 0.011,0.027 0.031,0.055 0.035,0.09 0.005,0.035 -0.01,0.094 -0.01,0.137 10e-4,0.025 0.012,0.041 0.01,0.061 -0.007,0.094 -0.043,0.207 -0.035,0.293 0.003,0.057 0.065,0.061 0.097,0.088 0.042,0.035 0.098,0.107 0.111,0.164 0.018,0.061 0.015,0.121 0.033,0.168 0.007,0.02 0.026,0.035 0.039,0.057 0.042,0.07 0.071,0.105 0.134,0.133 0.037,0.018 0.075,0.041 0.119,0.035 0.046,-0.09 -0.031,-0.121 -0.046,-0.195 -0.013,-0.059 0.006,-0.141 -0.015,-0.195 -0.017,-0.051 -0.107,-0.117 -0.157,-0.146 -0.026,-0.016 -0.064,-0.004 -0.087,-0.025 -0.034,-0.027 -0.041,-0.111 -0.077,-0.174 -0.022,-0.035 -0.06,-0.053 -0.062,-0.094 -0.005,-0.098 0.051,-0.182 0.071,-0.268 0.019,-0.084 0.007,-0.121 0.05,-0.141 0.029,-0.008 0.047,0.041 0.07,0.049 0.039,0.012 0.091,0.004 0.12,0.035 0.023,0.021 0.03,0.072 0.061,0.098 0.039,0.031 0.106,0.025 0.114,0.066 0.004,0.031 -0.02,0.111 0.015,0.113 0.09,-0.043 0.13,-0.18 0.192,-0.236 0.081,-0.078 0.179,-0.133 0.234,-0.234 0.093,-0.373 -0.063,-0.377 -0.199,-0.455 -0.035,-0.021 -0.143,-0.102 -0.133,-0.156 0.011,-0.076 0.19,-0.262 0.267,-0.293 0.084,-0.035 0.155,0.006 0.135,0.074 -0.011,0.039 -0.104,0.094 -0.107,0.154 -0.003,0.055 0.064,0.049 0.097,0.033 0.048,-0.018 0.123,-0.105 0.123,-0.168 10e-4,-0.037 -0.058,-0.043 -0.051,-0.086 0.016,-0.084 0.156,-0.113 0.24,-0.164 0.033,-0.02 0.066,-0.061 0.105,-0.082 0.147,-0.086 0.315,-0.162 0.454,-0.285 0.155,-0.137 0.225,-0.291 0.283,-0.492 0.105,-0.072 0.058,-0.152 0.075,-0.27 -0.018,-0.045 -0.1,-0.008 -0.118,-0.051 -0.004,-0.033 0.021,-0.051 0.015,-0.088 -0.038,-0.02 -0.032,-0.08 -0.065,-0.123 -0.015,-0.02 -0.065,-0.025 -0.096,-0.051 -0.071,-0.061 -0.137,-0.172 -0.187,-0.205 -0.059,-0.037 -0.131,-0.027 -0.133,-0.115 -0.005,-0.154 0.173,-0.297 0.2,-0.434 -0.056,-0.033 -0.128,-0.07 -0.208,-0.033 -0.045,0.023 -0.076,0.113 -0.121,0.123 -0.055,0.014 -0.068,-0.092 -0.128,-0.115 -0.066,-0.023 -0.146,0.023 -0.146,-0.098 10e-4,-0.064 0.062,-0.094 0.092,-0.148 0.045,-0.08 0.087,-0.326 0.178,-0.34 0.117,-0.016 0.02,0.254 0.122,0.312 0.064,-0.039 0.083,-0.141 0.152,-0.186 0.096,-0.061 0.229,-0.045 0.267,0.059 0.028,0.078 0.019,0.174 0.083,0.199 0.094,0.039 0.17,-0.043 0.221,0.045 0.02,0.029 0.019,0.084 0.033,0.113 0.026,0.057 0.067,0.074 0.084,0.145 0.023,0.088 0.005,0.189 0.078,0.201 0.076,0.008 0.248,-0.176 0.248,-0.271 0,-0.072 -0.059,-0.188 -0.097,-0.248 -0.06,-0.088 -0.171,-0.197 -0.232,-0.238 -0.044,-0.029 -0.139,-0.021 -0.152,-0.125 -0.013,-0.111 0.09,-0.162 0.095,-0.283 0.005,-0.074 -0.017,-0.105 -0.034,-0.209 0.036,-0.109 0.038,-0.238 0.111,-0.268 0.049,-0.02 0.081,0.047 0.13,0.025 0.053,-0.021 0.114,-0.156 0.123,-0.262 0.003,-0.053 -0.006,-0.141 -0.005,-0.223 0.001,-0.07 0.011,-0.143 0.006,-0.205 -0.006,-0.059 -0.026,-0.113 -0.038,-0.182 -0.019,-0.102 -0.017,-0.207 -0.032,-0.26 -0.022,-0.084 -0.098,-0.17 -0.153,-0.23 -0.025,-0.025 -0.178,-0.131 -0.119,-0.191 0.029,-0.029 0.116,0.033 0.139,0.051 0.053,0.041 0.088,0.08 0.122,0.113 0.053,0.051 0.093,0.113 0.136,0.164 -0.037,-0.107 -0.078,-0.209 -0.116,-0.314 -0.037,-0.02 -0.075,-0.041 -0.104,-0.059 -0.126,-0.076 -0.221,-0.193 -0.338,-0.205 -0.043,0.047 0.004,0.088 -0.05,0.109 -0.029,0.012 -0.112,-0.025 -0.165,-0.043 -0.056,-0.016 -0.121,-0.053 -0.184,-0.031 -0.031,0.012 -0.062,0.092 -0.102,0.102 -0.071,0.02 -0.219,-0.084 -0.28,-0.078 -0.035,0.002 -0.035,0.035 -0.066,0.029 -0.125,-0.012 -0.09,-0.236 -0.104,-0.289 -0.012,-0.061 -0.048,-0.141 -0.057,-0.176 -0.013,-0.055 -0.011,-0.121 -0.036,-0.205 -0.017,-0.057 -0.054,-0.123 -0.071,-0.184 -0.113,-0.416 0.362,-0.223 0.505,-0.381 0.025,-0.027 0.021,-0.131 0.06,-0.148 0.08,-0.037 0.213,0.125 0.305,0.109 0.011,-0.002 0.034,-0.014 0.057,-0.029 -0.485,-0.98 -1.068,-1.906 -1.756,-2.746 -0.095,0.051 -0.197,0.119 -0.308,0.141 -0.104,0.02 -0.213,-0.111 -0.333,-0.143 -0.221,-0.055 -0.405,0.053 -0.526,0.143 -0.054,0.041 -0.096,0.115 -0.166,0.121 -0.033,0.006 -0.098,-0.037 -0.143,-0.035 -0.065,0.004 -0.121,0.057 -0.17,0.047 -0.077,-0.018 -0.184,-0.121 -0.244,-0.113 -0.055,0.008 -0.086,0.064 -0.135,0.092 -0.142,0.068 -0.294,0.119 -0.41,0.213 10e-4,0.055 0.049,0.137 0.042,0.186 -0.017,0.129 -0.23,0.084 -0.279,0.188 -0.006,0.047 0.042,0.141 0.022,0.168 -0.013,0.023 -0.105,-0.02 -0.143,-0.045 -0.043,-0.027 -0.103,-0.105 -0.149,-0.139 -0.067,-0.051 -0.155,-0.111 -0.19,-0.111 -0.064,0 -0.113,0.084 -0.175,0.107 -0.016,0.006 -0.049,-0.004 -0.061,0.014 -0.022,0.033 0,0.148 -0.033,0.176 -0.015,0.012 -0.046,-0.004 -0.069,0.006 -0.018,0.006 -0.031,0.031 -0.046,0.033 -0.023,0 -0.058,-0.033 -0.08,-0.029 -0.04,0.004 -0.09,0.033 -0.128,0.061 -0.029,0.016 -0.042,0.059 -0.077,0.057 -0.05,-0.008 -0.104,-0.084 -0.147,-0.094 -0.055,-0.137 -0.077,-0.104 -0.124,-0.113 -0.015,-0.002 -0.03,-0.023 -0.042,-0.023 -0.065,-0.004 -0.126,0.086 -0.19,0.102 -0.021,0.006 -0.044,-0.037 -0.066,-0.035 -0.022,0.006 -0.025,0.037 -0.109,0.092 -0.078,0.055 -0.165,0.08 -0.231,0.135 -0.04,0.033 -0.065,0.086 -0.104,0.127 -0.039,0.041 -0.083,0.078 -0.124,0.102 -0.064,0.037 -0.141,0.021 -0.209,0.068 -0.065,0.039 -0.134,0.15 -0.209,0.209 -0.124,0.096 -0.244,0.162 -0.295,0.271 -0.014,0.053 0.045,0.057 0.034,0.111 -0.068,0.082 -0.224,0.09 -0.263,0.191 -0.003,0.061 0.058,0.092 0.035,0.146 -0.051,0.01 -0.07,-0.014 -0.1,0.002 -0.058,0.027 -0.046,0.191 -0.087,0.211 -0.036,0.014 -0.084,-0.092 -0.118,-0.074 -0.04,0.02 -0.01,0.203 -0.045,0.219 -0.04,0.018 -0.064,-0.105 -0.11,-0.168 -0.068,-0.094 -0.205,-0.041 -0.229,0.049 -0.007,0.027 -0.015,0.238 -0.011,0.258 0.011,0.049 0.092,0.186 0.109,0.205 0.054,0.055 0.12,-0.018 0.174,0.137 -0.107,0.027 -0.25,-0.066 -0.371,-0.066 -0.079,-0.002 -0.159,0.02 -0.237,0.027 -0.01,0.066 0.076,0.102 0.058,0.176 -0.011,0.049 -0.076,-0.021 -0.104,-0.02 -0.041,0.004 -0.062,0.066 -0.107,0.092 -0.02,0.012 -0.048,0.008 -0.071,0.018 -0.029,0.012 -0.048,0.049 -0.07,0.047 -0.04,-0.002 -0.073,-0.072 -0.104,-0.068 -0.025,0.006 -0.05,0.062 -0.078,0.078 -0.021,0.018 -0.048,0.016 -0.062,0.025 -0.023,0.016 -0.042,0.07 -0.068,0.102 -0.022,0.021 -0.052,0.029 -0.071,0.055 -0.042,0.061 -0.042,0.154 -0.095,0.168 -0.022,0.006 -0.07,-0.004 -0.097,-0.084 -0.01,-0.062 0.024,-0.061 0.008,-0.129 -0.021,-0.059 -0.123,-0.068 -0.136,0.01 -0.03,0.111 0.048,0.166 0.052,0.285 -0.008,0.01 -0.015,0.023 -0.018,0.045 -0.111,-0.072 -0.187,0.057 -0.254,0.145 -0.004,0.061 0.007,0.146 -0.025,0.162 -0.084,0.031 -0.163,-0.092 -0.22,-0.006 -0.006,0.109 0.082,0.035 0.074,0.152 -0.138,0.047 -0.3,-0.125 -0.308,-0.359 0.103,-0.068 0.233,0.016 0.327,0.002 0.055,-0.006 0.186,-0.062 0.173,-0.203 -0.01,-0.117 -0.156,-0.152 -0.225,-0.18 -0.083,-0.035 -0.184,-0.094 -0.268,-0.098 -0.028,-0.002 -0.058,0.014 -0.085,0.014 -0.08,0 -0.146,-0.059 -0.21,-0.057 -0.042,0 -0.08,0.027 -0.107,0.018 -0.06,-0.018 -0.055,-0.094 -0.1,-0.113 -0.097,-0.039 -0.212,0.029 -0.327,0.045 -0.069,0.01 -0.137,0.002 -0.188,0.018 -0.035,0.01 -0.065,0.035 -0.093,0.043 -0.021,0.002 -0.062,0 -0.077,0.002 -0.042,0.016 -0.082,0.07 -0.125,0.102 -0.072,0.047 -0.156,0.047 -0.233,0.08 -0.073,0.031 -0.133,0.148 -0.202,0.172 -0.047,0.018 -0.132,-0.016 -0.152,0.051 -0.011,0.064 0.041,0.072 0.023,0.121 -0.042,0.105 -0.148,0.156 -0.202,0.258 -0.016,0.031 -0.016,0.072 -0.031,0.102 -0.021,0.043 -0.062,0.068 -0.079,0.107 -0.025,0.061 -0.013,0.107 -0.051,0.141 -0.057,0.049 -0.142,0.023 -0.2,0.059 -0.033,0.02 -0.057,0.072 -0.087,0.096 -0.083,0.064 -0.195,0.088 -0.246,0.203 -0.013,0.098 0.019,0.168 0.026,0.234 0.006,0.049 -0.004,0.092 0.008,0.135 0.022,0.074 0.11,0.152 0.19,0.15 0.125,0 0.218,-0.201 0.318,-0.18 0.05,0.008 0.057,0.109 0.082,0.166 0.024,0.051 0.131,0.137 0.118,0.219 -0.01,0.064 -0.136,0.088 -0.197,0.088 -0.007,-0.07 0.004,-0.189 -0.044,-0.229 -0.1,0.059 -0.168,0.045 -0.194,0.135 -0.033,0.119 0.066,0.201 0.055,0.299 -0.013,0.107 -0.213,0.072 -0.3,0.088 -0.064,0.01 -0.088,0.09 -0.141,0.156 -0.037,0.047 -0.109,0.102 -0.163,0.123 -0.026,0.016 -0.06,0.012 -0.084,0.029 -0.037,0.025 -0.049,0.086 -0.091,0.117 -0.028,0.02 -0.142,0.08 -0.174,0.08 -0.037,0 -0.072,-0.035 -0.099,-0.027 -0.038,0.016 -0.031,0.096 -0.075,0.111 -0.086,0.031 -0.232,-0.084 -0.258,0.055 0.039,0.08 0.131,0.062 0.198,0.105 0.041,0.029 0.128,0.152 0.14,0.197 0.01,0.041 0.002,0.197 -0.011,0.236 -0.037,0.115 -0.13,0.078 -0.247,0.074 -0.033,-0.004 -0.067,0.008 -0.097,0.004 -0.201,-0.014 -0.406,-0.096 -0.489,0.061 0.013,0.119 0.04,0.199 0.021,0.303 -0.014,0.076 -0.074,0.146 -0.067,0.213 0.003,0.035 0.041,0.068 0.049,0.115 0.005,0.023 -0.005,0.07 0.005,0.094 0.037,0.07 0.122,0.016 0.181,0.025 0.058,0.01 0.126,0.098 0.127,0.166 10e-4,0.051 -0.038,0.131 -0.065,0.178 -0.053,0.092 -0.126,0.098 -0.205,0.148 -0.065,0.041 -0.092,0.111 -0.132,0.182 -0.042,0.078 -0.065,0.123 -0.053,0.238 -0.059,0.129 -0.15,0.215 -0.275,0.279 -0.035,0.021 -0.085,0.029 -0.118,0.057 -0.027,0.02 -0.046,0.086 -0.087,0.135 -0.049,0.066 -0.101,0.094 -0.129,0.143 -0.021,0.037 -0.035,0.115 -0.06,0.172 -0.034,0.072 -0.097,0.111 -0.142,0.184 -0.02,0.033 -0.039,0.105 -0.062,0.15 -0.053,0.102 -0.133,0.178 -0.135,0.27 0,0.092 0.073,0.102 0.07,0.18 -0.002,0.043 -0.029,0.074 -0.032,0.119 -0.005,0.07 0.026,0.121 0.024,0.174 -0.002,0.131 -0.053,0.188 -0.082,0.271 -0.014,0.049 -0.014,0.094 -0.026,0.127 -0.023,0.064 -0.1,0.123 -0.108,0.199 -0.005,0.053 0.038,0.094 0.036,0.17 0,0.049 -0.03,0.1 -0.026,0.145 0.01,0.086 0.141,0.189 0.198,0.25 0.076,0.088 0.177,0.148 0.212,0.229 0.029,0.072 0.029,0.16 0.085,0.211 0.041,0.035 0.108,0.061 0.162,0.098 0.05,0.033 0.102,0.061 0.155,0.096 0.084,0.062 0.213,0.182 0.348,0.174 0.071,-0.002 0.146,-0.053 0.227,-0.062 0.084,-0.01 0.193,-0.016 0.277,-0.008 0.063,0.008 0.128,0.043 0.195,0.041 0.07,0 0.155,-0.047 0.236,-0.078 0.141,-0.055 0.353,-0.127 0.555,-0.098 0.153,0.027 0.139,0.193 0.241,0.258 0.125,0.012 0.229,-0.039 0.327,-0.016 0.073,0.018 0.153,0.129 0.157,0.188 0.003,0.055 -0.041,0.143 -0.053,0.18 -0.024,0.076 -0.033,0.168 -0.051,0.213 -0.015,0.039 -0.047,0.064 -0.05,0.102 -0.002,0.033 0.038,0.119 0.071,0.168 0.042,0.059 0.111,0.104 0.162,0.17 0.093,0.119 0.126,0.258 0.186,0.414 0.022,0.055 0.067,0.146 0.065,0.203 -10e-4,0.047 -0.03,0.078 -0.026,0.121 0.005,0.094 0.062,0.141 0.068,0.225 0.018,0.199 -0.151,0.24 -0.186,0.398 -0.009,0.041 0.001,0.08 -0.007,0.113 -0.013,0.051 -0.047,0.088 -0.055,0.137 -0.007,0.047 -0.018,0.143 -0.014,0.193 0.006,0.076 0.084,0.154 0.123,0.223 0.041,0.076 0.075,0.199 0.124,0.297 0.025,0.057 0.071,0.104 0.082,0.145 0.013,0.055 0,0.125 0.006,0.191 0.006,0.053 0.035,0.105 0.04,0.148 0.021,0.131 0.027,0.262 0.091,0.381 0.03,0.059 0.088,0.098 0.13,0.174 0.04,0.074 0.055,0.164 0.095,0.252 0.042,0.086 0.095,0.148 0.095,0.199 10e-4,0.039 -0.034,0.07 -0.034,0.113 0.003,0.109 0.118,0.229 0.207,0.238 0.04,0.004 0.083,-0.023 0.125,-0.029 0.024,-0.002 0.053,0.008 0.077,0.006 0.042,0 0.079,-0.033 0.11,-0.035 0.089,-0.006 0.181,0.021 0.263,0.016 0.145,-0.008 0.313,-0.082 0.403,-0.152 0.106,-0.082 0.214,-0.184 0.295,-0.279 0.058,-0.07 0.087,-0.166 0.144,-0.234 0.045,-0.053 0.115,-0.088 0.146,-0.15 0.02,-0.041 0.067,-0.18 0.069,-0.217 0.003,-0.043 -0.021,-0.074 -0.013,-0.113 0.031,-0.141 0.285,-0.141 0.337,-0.271 0.05,-0.123 0.028,-0.277 0.004,-0.381 -0.009,-0.039 -0.042,-0.098 -0.038,-0.141 0.009,-0.072 0.123,-0.154 0.208,-0.236 0.05,-0.049 0.09,-0.117 0.14,-0.162 0.071,-0.062 0.175,-0.088 0.241,-0.139 0.061,-0.051 0.163,-0.174 0.186,-0.238 0.029,-0.074 -0.002,-0.127 -0.015,-0.199 -0.016,-0.115 -0.008,-0.254 -0.013,-0.395 -0.07,-0.053 -0.093,-0.158 -0.128,-0.25 0.016,-0.08 0.035,-0.145 0.019,-0.217 -0.01,-0.043 -0.047,-0.059 -0.05,-0.104 -0.005,-0.107 0.078,-0.176 0.121,-0.258 0.04,-0.08 0.067,-0.152 0.099,-0.195 0.041,-0.055 0.111,-0.092 0.159,-0.148 0.035,-0.041 0.055,-0.088 0.086,-0.133 0.086,-0.123 0.208,-0.256 0.321,-0.355 0.057,-0.049 0.118,-0.082 0.169,-0.129 0.052,-0.055 0.095,-0.107 0.144,-0.168 0.086,-0.105 0.196,-0.232 0.25,-0.352 0.016,-0.039 0.016,-0.082 0.029,-0.119 0.047,-0.119 0.144,-0.227 0.18,-0.359 0.007,-0.025 0.007,-0.055 0.013,-0.082 0.019,-0.084 0.068,-0.188 -0.003,-0.26 -0.063,-0.01 -0.12,0.076 -0.201,0.104 -0.085,0.025 -0.168,0.033 -0.235,0.061 -0.038,0.016 -0.071,0.059 -0.105,0.07 -0.024,0.008 -0.054,0.002 -0.083,0.012 -0.053,0.02 -0.097,0.064 -0.133,0.064 -0.086,0.006 -0.139,-0.098 -0.193,-0.152 0.007,-0.045 0.038,-0.068 0.024,-0.117 -0.01,-0.041 -0.06,-0.041 -0.098,-0.07 -0.063,-0.059 -0.121,-0.146 -0.199,-0.203 -0.086,-0.059 -0.203,-0.09 -0.25,-0.197 -0.031,-0.066 -0.04,-0.176 -0.084,-0.252 -0.056,-0.09 -0.178,-0.137 -0.207,-0.236 -0.032,-0.105 -0.013,-0.18 -0.04,-0.285 -0.038,-0.152 -0.175,-0.191 -0.228,-0.326 -0.015,-0.037 -0.017,-0.084 -0.029,-0.119 -0.034,-0.096 -0.102,-0.188 -0.149,-0.268 -0.051,-0.092 -0.097,-0.182 -0.131,-0.287 0.027,-0.043 0.088,-0.047 0.144,-0.057 0.114,0.104 0.221,0.238 0.297,0.389 0.019,0.039 0.025,0.088 0.047,0.123 0.033,0.057 0.089,0.078 0.118,0.117 0.039,0.047 0.077,0.113 0.094,0.174 0.01,0.037 0.002,0.074 0.015,0.125 0.043,0.182 0.211,0.25 0.3,0.389 0.027,0.041 0.039,0.096 0.062,0.131 0.048,0.07 0.12,0.107 0.143,0.193 -0.002,0.047 -0.055,0.037 -0.049,0.09 0.025,0.061 0.083,0.072 0.116,0.131 0.065,0.113 0.079,0.281 0.133,0.406 0.106,0.055 0.199,-0.078 0.3,-0.127 0.033,-0.018 0.069,-0.018 0.1,-0.031 0.041,-0.02 0.082,-0.064 0.126,-0.084 0.023,-0.008 0.049,-0.006 0.069,-0.016 0.05,-0.027 0.081,-0.09 0.137,-0.129 0.089,-0.061 0.195,-0.074 0.254,-0.129 0.057,-0.049 0.054,-0.127 0.102,-0.17 0.073,-0.064 0.159,-0.061 0.248,-0.109 0.043,-0.023 0.071,-0.074 0.112,-0.115 0.034,-0.033 0.076,-0.068 0.111,-0.105 0.034,-0.041 0.095,-0.084 0.106,-0.113 0.006,-0.02 10e-4,-0.068 0.011,-0.094 0.011,-0.033 0.052,-0.055 0.079,-0.094 0.025,-0.037 0.114,-0.184 0.109,-0.227 -0.007,-0.047 -0.146,-0.172 -0.18,-0.182 -0.052,-0.018 -0.097,0 -0.132,-0.016 -0.05,-0.018 -0.093,-0.061 -0.122,-0.113 -0.028,-0.059 -0.002,-0.104 -0.078,-0.152 -0.126,0.119 -0.202,0.293 -0.49,0.256 -0.064,-0.029 -0.042,-0.156 -0.071,-0.227 -0.033,-0.033 -0.088,0.01 -0.117,-0.004 -0.05,-0.158 -0.195,-0.201 -0.274,-0.32 -0.024,-0.035 -0.085,-0.123 -0.082,-0.17 0.008,-0.068 0.098,-0.109 0.153,-0.105 0.161,0.002 0.183,0.229 0.291,0.305 0.044,0.027 0.101,0.047 0.163,0.09 0.087,0.059 0.195,0.115 0.321,0.084 0.058,-0.016 0.093,-0.07 0.158,-0.057 0.053,0.014 0.068,0.109 0.099,0.139 0.051,0.043 0.171,0.061 0.259,0.066 0.069,0.008 0.156,0.014 0.222,0.02 0.104,0.008 0.207,-0.012 0.29,-0.023 0.066,-0.006 0.17,-0.002 0.229,-0.01 0.024,-0.002 0.058,-0.014 0.082,-0.014 0.092,0.004 0.143,0.111 0.196,0.154 0.096,0.07 0.216,0.096 0.266,0.156 -0.055,0.107 0.145,0.205 0.219,0.201 0.077,-0.006 0.105,-0.064 0.172,-0.084 0.072,0.029 0.05,0.072 0.059,0.152 0.003,0.053 0.032,0.133 0.058,0.199 0.025,0.061 0.05,0.127 0.075,0.184 0.03,0.062 0.09,0.123 0.134,0.184 0.052,0.074 0.063,0.158 0.097,0.225 0.03,0.055 0.093,0.09 0.122,0.137 0.063,0.102 0.1,0.381 0.234,0.332 0.03,-0.01 0.038,-0.037 0.069,-0.086 0.018,-0.027 0.053,-0.055 0.073,-0.088 0.013,-0.023 0.021,-0.061 0.037,-0.088 0.019,-0.033 0.042,-0.051 0.048,-0.074 0.009,-0.045 -0.012,-0.088 -0.007,-0.127 0.006,-0.049 0.039,-0.092 0.045,-0.137 0.011,-0.098 -0.04,-0.166 -0.037,-0.264 0.043,-0.09 0.138,-0.107 0.199,-0.176 0.025,-0.025 0.031,-0.062 0.053,-0.088 0.027,-0.033 0.068,-0.057 0.098,-0.088 0.059,-0.07 0.097,-0.148 0.15,-0.195 0.042,-0.033 0.104,-0.047 0.12,-0.109 -0.014,-0.127 0.078,-0.117 0.186,-0.145 0.032,-0.008 0.112,-0.037 0.143,-0.053 0.031,-0.018 0.066,-0.07 0.096,-0.072 0.03,0 0.039,0.053 0.058,0.09 0.016,0.01 0.049,0.042 0.076,0.063 z m -9.723,-3.978 c 0.062,-0.01 0.047,-0.074 0.091,-0.084 0.028,-0.004 0.056,0.025 0.099,0.021 0.047,-0.006 0.087,-0.092 0.131,-0.113 0.084,-0.043 0.154,-0.021 0.166,-0.107 0.007,-0.053 -0.027,-0.123 -0.018,-0.178 0.02,-0.125 0.204,-0.111 0.193,-0.262 -0.005,-0.092 -0.148,-0.109 -0.167,-0.195 -0.012,-0.059 0.012,-0.15 0.024,-0.188 0.06,-0.158 0.259,-0.193 0.318,-0.33 0.03,-0.064 0.025,-0.129 0.045,-0.158 0.057,-0.096 0.235,-0.131 0.296,-0.055 0.002,0.221 -0.313,0.287 -0.318,0.461 -0.002,0.037 0.023,0.1 0.03,0.162 0.006,0.053 0,0.094 0.009,0.119 0.023,0.092 0.118,0.156 0.189,0.156 0.167,0.006 0.425,-0.246 0.573,-0.08 -0.064,0.201 -0.302,0.061 -0.466,0.145 -0.034,0.018 -0.057,0.062 -0.085,0.08 -0.037,0.02 -0.111,0 -0.11,0.084 0.033,0.086 0.085,-0.021 0.125,-0.023 0.045,-0.002 0.112,0.061 0.106,0.131 -0.012,0.166 -0.129,-0.002 -0.201,0.006 -0.107,0.014 -0.128,0.207 -0.105,0.34 -0.048,0.033 -0.102,0.119 -0.167,0.123 -0.041,0.006 -0.074,-0.037 -0.13,-0.043 -0.121,-0.014 -0.233,0.109 -0.345,0.105 -0.049,0 -0.104,-0.066 -0.182,-0.066 -0.04,0.002 -0.069,0.033 -0.112,0.033 -0.052,0.006 -0.138,-0.016 -0.135,-0.061 0.003,-0.074 0.094,-0.014 0.146,-0.023 z m 2.789,2.765 c -0.036,0.111 -0.012,0.219 -0.118,0.252 -0.143,0.051 -0.23,-0.055 -0.362,-0.047 -0.068,0.004 -0.123,0.072 -0.195,0.082 -0.115,0.016 -0.236,-0.082 -0.369,-0.1 -0.029,-0.004 -0.067,0.008 -0.09,0 -0.031,-0.008 -0.057,-0.041 -0.09,-0.053 -0.059,-0.02 -0.104,-0.008 -0.153,-0.021 -0.067,-0.121 -0.403,-0.131 -0.433,0.049 -0.013,0.078 0.037,0.189 -0.073,0.203 -0.071,0.008 -0.147,-0.076 -0.242,-0.1 -0.038,-0.008 -0.095,-0.004 -0.125,-0.014 -0.072,-0.027 -0.062,-0.1 -0.124,-0.146 -0.035,-0.023 -0.126,-0.064 -0.183,-0.07 -0.036,-0.006 -0.068,0.01 -0.104,0.006 -0.044,-0.006 -0.106,-0.041 -0.143,-0.062 -0.034,-0.023 -0.106,-0.057 -0.115,-0.092 -0.014,-0.049 0.085,-0.105 0.088,-0.15 0.002,-0.033 -0.039,-0.057 -0.046,-0.107 -0.005,-0.029 0.012,-0.062 0.006,-0.082 -0.01,-0.039 -0.066,-0.078 -0.118,-0.078 -0.045,-0.004 -0.089,0.039 -0.128,0.039 -0.055,0.002 -0.148,-0.031 -0.219,-0.027 -0.042,0.006 -0.08,0.029 -0.119,0.035 -0.111,0.008 -0.201,-0.008 -0.287,0 -0.062,0.004 -0.17,0.027 -0.227,0.057 -0.03,0.014 -0.052,0.047 -0.088,0.07 -0.017,0.008 -0.04,0.008 -0.063,0.02 -0.035,0.016 -0.072,0.059 -0.105,0.068 -0.05,0.016 -0.127,-0.012 -0.217,-0.008 -0.063,0 -0.169,0.002 -0.173,-0.086 -0.006,-0.129 0.198,-0.078 0.307,-0.102 0.041,-0.006 0.065,-0.053 0.113,-0.086 0.023,-0.014 0.052,-0.014 0.074,-0.029 0.037,-0.029 0.095,-0.104 0.098,-0.133 0.004,-0.037 -0.02,-0.078 -0.016,-0.102 0.003,-0.027 0.035,-0.059 0.068,-0.096 0.052,-0.061 0.106,-0.139 0.171,-0.18 0.046,-0.023 0.109,-0.021 0.129,-0.061 0.002,-0.045 -0.011,-0.07 -0.011,-0.113 0.026,-0.027 0.046,-0.047 0.068,-0.053 0.069,-0.018 0.141,0.051 0.221,0.047 0.035,0 0.066,-0.023 0.103,-0.055 0.031,-0.021 0.064,-0.037 0.095,-0.055 0.034,-0.02 0.068,-0.055 0.11,-0.061 0.103,-0.006 0.143,0.115 0.191,0.182 0.039,0.055 0.155,0.15 0.22,0.189 0.036,0.02 0.084,0.025 0.125,0.043 0.084,0.039 0.256,0.182 0.258,0.266 10e-4,0.047 -0.039,0.08 -0.032,0.119 0.065,0.008 0.137,-0.062 0.137,-0.131 10e-4,-0.043 -0.04,-0.068 -0.032,-0.113 0.03,-0.07 0.119,0 0.16,-0.027 -0.008,-0.078 -0.111,-0.086 -0.176,-0.127 -0.033,-0.02 -0.057,-0.068 -0.093,-0.084 -0.051,-0.021 -0.105,-0.016 -0.144,-0.049 -0.039,-0.031 -0.058,-0.102 -0.095,-0.148 -0.053,-0.064 -0.171,-0.076 -0.141,-0.227 0.015,-0.027 0.054,-0.062 0.079,-0.051 0.049,0.012 0.044,0.057 0.081,0.082 0.025,0.02 0.062,0.018 0.092,0.035 0.035,0.025 0.053,0.088 0.094,0.125 0.055,0.047 0.154,0.082 0.234,0.123 0.073,0.037 0.193,0.086 0.208,0.15 0.009,0.039 -0.01,0.078 -0.006,0.113 0.006,0.041 0.036,0.086 0.055,0.115 0.052,0.072 0.125,0.141 0.183,0.229 -0.002,0.121 0.042,0.197 0.178,0.182 0.047,-0.027 0.022,-0.064 0.06,-0.107 0.037,-0.037 0.117,-0.033 0.117,-0.09 0,-0.086 -0.203,-0.104 -0.177,-0.229 0.007,-0.041 0.053,-0.021 0.088,-0.021 0.059,-0.07 0.182,-0.156 0.263,-0.049 0.035,0.213 0.102,0.393 0.251,0.508 0.105,-0.035 0.152,0.066 0.251,0.049 0.047,-0.008 0.07,-0.068 0.117,-0.078 0.085,-0.01 0.143,0.084 0.223,0.094 0.13,0.018 0.226,-0.137 0.354,-0.059 0.007,0.107 0.039,0.166 0.036,0.238 0.002,0.064 -0.048,0.113 -0.074,0.189 z m 0.521,-1.039 c -0.066,0.016 -0.178,0.02 -0.241,0.02 -0.194,0 -0.339,-0.146 -0.558,-0.131 -0.051,0.004 -0.095,0.018 -0.132,0.033 -0.06,0.023 -0.102,0.074 -0.154,0.086 -0.063,0.012 -0.164,-0.016 -0.215,0.002 -0.062,0.02 -0.07,0.172 -0.195,0.068 -0.007,-0.064 0.08,-0.035 0.083,-0.088 -0.003,-0.053 -0.07,-0.08 -0.076,-0.145 -0.007,-0.064 0.062,-0.094 0.084,-0.17 0.007,-0.025 0,-0.055 0.007,-0.068 0.012,-0.031 0.046,-0.051 0.069,-0.086 0.042,-0.061 0.085,-0.176 0.166,-0.186 0.077,-0.012 0.124,0.047 0.189,0.045 0.045,0.062 0.069,0.174 0.152,0.184 0.071,0.01 0.154,-0.059 0.221,-0.086 -0.016,-0.062 -0.087,-0.029 -0.096,-0.092 -0.016,-0.105 0.209,-0.15 0.305,-0.131 0.055,0.113 -0.083,0.145 -0.081,0.209 0,0.062 0.187,0.111 0.235,0.143 0.085,0.049 0.171,0.086 0.244,0.131 0.095,0.053 0.181,0.219 -0.007,0.262 z m 1.429,0.58 c -0.074,-0.002 -0.143,-0.062 -0.214,-0.096 -0.072,-0.033 -0.153,-0.029 -0.168,-0.115 -0.008,-0.039 0.008,-0.146 0.02,-0.193 0.012,-0.047 0.05,-0.057 0.046,-0.104 -0.002,-0.053 -0.119,-0.141 -0.16,-0.184 -0.059,-0.059 -0.137,-0.102 -0.168,-0.176 -0.011,-0.025 -0.008,-0.068 -0.021,-0.1 -0.024,-0.059 -0.085,-0.082 -0.09,-0.127 -0.002,-0.033 0.035,-0.104 0.061,-0.127 0.03,-0.023 0.09,-0.061 0.145,-0.107 0.113,-0.096 0.208,-0.137 0.386,-0.111 0.045,0.023 0.077,0.143 0.03,0.191 -0.113,0.006 -0.213,0.059 -0.214,0.145 -0.002,0.107 0.193,0.209 0.272,0.256 0.008,0.049 0.012,0.102 0.042,0.121 0.104,-0.051 0.209,0.012 0.209,0.105 -0.023,0.068 -0.093,0.004 -0.137,0.031 -0.013,0.002 -0.006,0.029 -0.022,0.027 0.037,0.195 0.224,0.211 0.191,0.482 -0.045,0.051 -0.129,0.082 -0.208,0.082 z m 0.12,-4.81 c -0.06,-0.117 -0.011,-0.146 -0.043,-0.256 -0.065,-0.203 -0.253,-0.211 -0.312,-0.443 0.006,-0.002 0,-0.018 -0.004,-0.027 0.067,-0.057 0.103,0.078 0.168,0.172 0.055,0.078 0.124,0.07 0.157,0.104 0.139,0.137 0.186,0.477 0.034,0.45 z m 1.791,-2.227 c -0.029,-0.055 -0.007,-0.084 -10e-4,-0.107 0.01,-0.049 0.012,-0.1 0.045,-0.123 0.03,0.111 -0.015,0.197 -0.044,0.23 z" />
            <path
               id="path68"
               d="m 274.185,439.482 c 0.024,0.016 0.056,0.006 0.078,0.02 0.038,0.023 0.066,0.074 0.061,0.111 -0.01,0.055 -0.082,0.043 -0.116,0.08 0.008,0.078 -0.052,0.088 -0.07,0.145 0.011,0.033 0.06,0.027 0.066,0.068 -0.008,0.045 -0.082,0.049 -0.065,0.096 0.071,0.059 0.143,-0.008 0.208,-0.018 0.145,-0.02 0.295,0.02 0.384,-0.053 -0.013,-0.074 0.07,-0.1 0.062,-0.164 -0.005,-0.051 -0.084,-0.053 -0.119,-0.092 -0.018,-0.018 -0.024,-0.059 -0.047,-0.094 -0.027,-0.039 -0.077,-0.072 -0.106,-0.113 -0.039,-0.057 -0.119,-0.141 -0.119,-0.184 0.002,-0.051 0.056,-0.066 0.066,-0.137 -0.012,-0.068 -0.114,-0.023 -0.121,-0.092 0.003,-0.047 0.038,-0.051 0.038,-0.102 -0.007,-0.008 -0.017,-0.01 -0.031,-0.008 -0.032,0.053 -0.093,0.031 -0.148,0.055 -0.045,0.021 -0.131,0.117 -0.142,0.15 -0.022,0.053 0.002,0.113 -0.002,0.191 0.036,0.02 0.059,0.102 0.123,0.141 z" />
            <path
               id="path70"
               d="m 273.889,439.803 c 0.035,-0.012 0.09,-0.006 0.11,-0.041 0.022,-0.035 0.003,-0.094 0.019,-0.145 0.017,-0.059 0.07,-0.064 0.063,-0.117 -0.008,-0.07 -0.16,-0.113 -0.248,-0.059 -0.05,0.031 -0.066,0.084 -0.105,0.1 -0.052,0.018 -0.089,0.002 -0.097,0.051 -0.006,0.043 0.035,0.064 0.034,0.102 -0.018,0.049 -0.077,0.059 -0.085,0.125 0.067,0.113 0.228,0.009 0.309,-0.016 z" />
            <path
               id="path72"
               d="m 271.013,447.391 c -0.166,-0.053 -0.261,-0.213 -0.431,-0.23 -0.037,-0.002 -0.07,0.01 -0.112,0.01 -0.067,-0.008 -0.167,-0.049 -0.242,-0.059 -0.049,-0.004 -0.112,0.006 -0.139,-0.004 -0.043,-0.021 -0.048,-0.09 -0.083,-0.109 -0.027,-0.02 -0.08,-0.025 -0.122,-0.043 -0.068,-0.027 -0.122,-0.053 -0.201,-0.066 -0.022,-0.002 -0.056,0.006 -0.084,0 -0.042,-0.006 -0.075,-0.051 -0.115,-0.076 -0.05,-0.031 -0.096,-0.049 -0.116,-0.088 0.051,-0.123 -0.074,-0.176 -0.102,-0.254 -0.013,-0.035 -0.007,-0.078 -0.019,-0.109 -0.017,-0.047 -0.065,-0.082 -0.12,-0.127 -0.097,-0.08 -0.182,-0.162 -0.323,-0.197 -0.062,-0.014 -0.125,0 -0.2,-0.014 -0.08,-0.02 -0.18,-0.1 -0.237,-0.176 -0.055,-0.072 -0.083,-0.135 -0.13,-0.17 -0.048,-0.041 -0.111,-0.051 -0.143,-0.086 -0.016,-0.018 -0.01,-0.035 -0.026,-0.072 -0.022,-0.055 -0.066,-0.09 -0.037,-0.146 -0.056,-0.041 -0.057,0.039 -0.117,0.02 -0.057,-0.086 -0.103,-0.133 -0.226,-0.129 -0.056,0.002 -0.085,0.07 -0.151,0.062 -0.054,-0.008 -0.1,-0.078 -0.17,-0.1 -0.054,-0.02 -0.116,-0.01 -0.156,-0.021 -0.06,-0.021 -0.081,-0.072 -0.137,-0.115 -0.042,-0.033 -0.123,-0.094 -0.145,-0.094 -0.072,-0.01 -0.117,0.129 -0.22,0.062 -0.05,-0.068 0.077,-0.08 0.017,-0.143 -0.045,-0.049 -0.081,0.004 -0.115,0.025 -0.039,0.016 -0.077,0.037 -0.12,0.047 -0.097,0.023 -0.162,-0.004 -0.238,0.023 -0.072,0.025 -0.072,0.082 -0.112,0.146 -0.033,0.053 -0.112,0.131 -0.164,0.129 -0.062,-0.006 -0.12,-0.1 -0.177,-0.129 -0.17,-0.094 -0.267,0.025 -0.397,0.01 -0.121,-0.012 -0.292,-0.234 -0.288,-0.346 0.003,-0.068 0.037,-0.164 0.043,-0.244 0.004,-0.064 0.05,-0.092 0.049,-0.15 -0.002,-0.074 -0.112,-0.148 -0.167,-0.164 -0.125,-0.043 -0.291,-0.014 -0.427,-0.102 -0.028,-0.049 0.027,-0.064 0.041,-0.1 0.008,-0.02 0,-0.049 0.009,-0.074 0.015,-0.033 0.055,-0.055 0.072,-0.094 0.012,-0.027 0.014,-0.07 0.028,-0.105 0.013,-0.043 0.045,-0.064 0.046,-0.098 0.004,-0.037 -0.012,-0.088 -0.049,-0.123 -0.106,-0.02 -0.179,-0.029 -0.235,-0.021 -0.133,0.021 -0.1,0.209 -0.229,0.203 -0.044,0 -0.108,-0.02 -0.157,-0.029 -0.041,-0.008 -0.091,-0.008 -0.134,-0.029 -0.051,-0.018 -0.141,-0.107 -0.171,-0.156 -0.028,-0.041 -0.098,-0.23 -0.107,-0.262 -0.058,-0.209 -0.013,-0.357 0.044,-0.455 0.012,-0.021 0.032,-0.035 0.041,-0.062 0.013,-0.033 0,-0.109 0.01,-0.154 0.017,-0.078 0.123,-0.084 0.198,-0.092 0.085,-0.012 0.16,-0.064 0.266,-0.031 0.054,0.014 0.132,0.059 0.185,0.084 0.048,0.029 0.088,0.068 0.13,0.084 0.12,0.039 0.145,-0.049 0.244,-0.084 0.104,0.031 0.172,0.008 0.269,0.029 0.066,0.014 0.115,0.084 0.167,0.092 0.043,0.006 0.082,-0.043 0.125,-0.035 0.041,0.006 0.114,0.094 0.122,0.145 0.009,0.061 -0.043,0.115 -0.023,0.178 0.069,0.066 0.192,0.076 0.291,0.117 0.062,-0.045 0.003,-0.139 -0.007,-0.207 -0.005,-0.029 0.002,-0.059 -0.002,-0.088 -0.007,-0.045 -0.031,-0.094 -0.033,-0.135 -0.005,-0.199 0.163,-0.297 0.302,-0.389 0.062,-0.039 0.109,-0.113 0.162,-0.143 0.075,-0.043 0.13,-0.049 0.193,-0.09 0.112,-0.076 0.211,-0.137 0.3,-0.223 0.044,-0.121 0.015,-0.295 0.025,-0.428 0.042,-0.031 0.073,0.023 0.116,0.021 0.069,-0.012 0.079,-0.146 0.119,-0.197 0.024,-0.027 0.084,-0.039 0.111,-0.066 0.071,-0.066 0.098,-0.176 0.158,-0.197 0.022,-0.008 0.069,0 0.104,-0.008 0.043,-0.01 0.106,-0.074 0.178,-0.096 0.046,-0.016 0.151,-0.008 0.17,-0.029 0.022,-0.027 0.006,-0.113 0.015,-0.154 0.047,-0.213 0.296,-0.213 0.441,-0.258 0.104,-0.033 0.211,-0.098 0.321,-0.053 -0.027,0.09 -0.129,0.037 -0.116,0.158 0.017,0.17 0.203,-0.014 0.248,-0.029 0.088,-0.031 0.239,-0.031 0.354,-0.064 0.103,-0.027 0.283,-0.061 0.193,-0.203 -0.078,-0.02 -0.12,0.082 -0.188,0.105 -0.049,0 -0.037,-0.053 -0.077,-0.062 -0.04,-0.014 -0.063,0.029 -0.102,0.014 -0.038,-0.018 -0.089,-0.098 -0.093,-0.15 -0.009,-0.139 0.11,-0.17 0.164,-0.256 -0.024,-0.123 -0.174,-0.061 -0.258,-0.127 0.014,-0.066 0.083,-0.1 0.156,-0.094 0.06,0.006 0.192,0.043 0.225,0.084 0.02,0.02 -0.001,0.061 0.03,0.1 0.033,0.041 0.078,0.047 0.123,0.049 0.021,-0.082 -0.101,-0.088 -0.083,-0.137 0.097,-0.043 0.248,0.041 0.363,0.045 0.065,0 0.14,-0.033 0.198,-0.055 0.058,-0.018 0.132,-0.059 0.188,0 0.014,0.059 -0.055,0.064 -0.088,0.088 -0.109,0.076 -0.225,0.166 -0.311,0.273 0.05,0.062 0.146,0.053 0.232,0.076 0.034,0.01 0.077,0.027 0.111,0.039 0.043,0.016 0.09,0.018 0.123,0.031 0.06,0.021 0.075,0.094 0.135,0.102 0.097,0.014 0.095,-0.098 0.04,-0.172 0.018,-0.066 0.048,-0.1 0.025,-0.15 -0.043,-0.092 -0.205,-0.033 -0.208,-0.141 -0.004,-0.07 0.06,-0.055 0.088,-0.105 -0.008,-0.127 0.113,-0.111 0.106,-0.236 -0.003,-0.049 -0.046,-0.055 -0.075,-0.109 -0.017,-0.027 -0.02,-0.08 -0.04,-0.104 -0.065,-0.076 -0.21,-0.094 -0.203,-0.225 0.005,-0.078 0.033,-0.137 0.037,-0.225 0.002,-0.082 -0.008,-0.326 -0.061,-0.357 -0.065,-0.041 -0.166,0.1 -0.26,0.129 -0.051,0.014 -0.124,0.029 -0.169,0.004 -0.027,-0.016 -0.078,-0.092 -0.067,-0.174 0.011,-0.092 0.062,-0.084 0.094,-0.176 0,-0.061 -0.045,-0.061 -0.076,-0.119 -0.035,-0.066 -0.047,-0.191 -0.102,-0.227 -0.029,-0.018 -0.074,0.008 -0.104,-0.002 -0.09,-0.031 -0.145,-0.164 -0.216,-0.17 -0.085,-0.008 -0.129,0.197 -0.217,0.199 -0.013,0.102 -0.108,0.129 -0.136,0.197 -0.017,0.049 -0.015,0.107 -0.024,0.152 -0.083,0.455 -0.376,0.553 -0.676,0.436 -0.076,0.053 -0.1,0.205 -0.149,0.271 -0.041,0.053 -0.152,0.096 -0.217,0.068 -0.05,-0.021 -0.093,-0.111 -0.083,-0.156 0.012,-0.057 0.105,-0.07 0.079,-0.17 0.02,-0.053 0.124,-0.047 0.136,-0.146 0.013,-0.104 -0.099,-0.09 -0.182,-0.141 -0.06,-0.035 -0.131,-0.123 -0.173,-0.193 -0.056,-0.094 -0.087,-0.248 -0.173,-0.309 -0.051,-0.033 -0.115,-0.018 -0.125,-0.08 -0.012,-0.068 0.055,-0.137 0.068,-0.174 0.019,-0.066 -0.046,-0.121 -0.028,-0.189 0.011,-0.045 0.125,-0.152 0.163,-0.182 0.072,-0.053 0.185,-0.086 0.282,-0.123 0.097,-0.031 0.209,-0.066 0.291,-0.068 0.034,-0.002 0.07,0.023 0.104,0.018 0.084,-0.008 0.166,-0.072 0.245,-0.07 0.041,0.002 0.079,0.027 0.123,0.035 0.103,0.012 0.21,-0.068 0.296,-0.049 -0.051,0.109 -0.129,0.084 -0.179,0.197 0.004,0.258 0.201,0.047 0.283,0.094 0.073,0.039 0.103,0.252 0.191,0.107 0.006,-0.096 -0.028,-0.174 -0.062,-0.252 -0.031,-0.07 -0.085,-0.154 -0.051,-0.254 0.062,-0.01 0.051,0.107 0.096,0.135 0.025,0.016 0.072,-0.018 0.102,-0.018 0.065,-0.004 0.166,0.041 0.227,0.002 0.036,-0.027 0.048,-0.094 0.082,-0.133 0.03,-0.031 0.076,-0.02 0.105,-0.049 0.034,-0.039 0.028,-0.092 0.062,-0.102 0.072,-0.008 0.135,0.094 0.207,0.121 0.035,0.014 0.066,-0.016 0.096,0.008 0.058,0.037 0.059,0.203 0.095,0.27 0.023,0.047 0.082,0.076 0.075,0.141 -0.012,0.129 -0.134,0.082 -0.221,0.113 -0.042,0.014 -0.073,0.078 -0.125,0.084 -0.137,0.018 -0.283,-0.229 -0.372,-0.033 0.024,0.162 0.162,0.066 0.233,0.098 0.05,0.023 0.096,0.127 0.117,0.193 0.019,0.055 0.012,0.148 0.04,0.188 0.019,0.025 0.062,0.035 0.087,0.059 0.08,0.068 0.145,0.164 0.248,0.166 0.048,-0.072 -0.052,-0.129 -10e-4,-0.182 0.063,0.031 0.1,0.086 0.146,0.129 0.083,-0.049 0.13,-0.043 0.145,-0.152 0.014,-0.098 -0.076,-0.133 -0.056,-0.24 0.011,-0.061 0.046,-0.078 0.08,-0.068 0.078,0.023 0.075,0.184 0.131,0.215 0.034,0.018 0.146,-0.02 0.168,-0.029 0.033,-0.01 0.133,-0.051 0.142,-0.092 0.012,-0.059 -0.077,-0.158 -0.118,-0.197 -0.059,-0.059 -0.125,-0.074 -0.139,-0.156 -0.007,-0.045 0.02,-0.078 0,-0.119 0.003,-0.039 0.049,-0.049 0.046,-0.096 -0.004,-0.045 -0.039,-0.051 -0.077,-0.096 -0.027,-0.033 -0.049,-0.082 -0.074,-0.105 -0.032,-0.027 -0.066,-0.033 -0.089,-0.059 -0.086,-0.092 -0.05,-0.199 -0.102,-0.281 -0.082,-0.031 -0.137,-0.125 -0.202,-0.109 -0.058,-0.096 -0.175,-0.092 -0.257,-0.162 -0.024,-0.021 -0.042,-0.064 -0.065,-0.086 -0.12,-0.107 -0.338,-0.109 -0.419,-0.051 -0.016,0.012 -0.087,0.094 -0.094,0.15 -0.012,0.104 0.109,0.109 0.113,0.217 -0.037,0.104 -0.123,0.113 -0.191,0.127 -0.064,0.016 -0.167,0.09 -0.207,-0.006 0.008,-0.119 0.093,-0.062 0.098,-0.162 0.002,-0.074 -0.074,-0.076 -0.084,-0.16 -0.015,-0.115 0.07,-0.199 0.096,-0.326 0.112,-0.135 0.293,0.123 0.395,0.01 0.008,-0.059 -0.03,-0.053 -0.05,-0.086 -0.021,-0.037 -0.014,-0.08 -0.04,-0.102 -0.023,-0.021 -0.071,-0.004 -0.106,-0.006 -0.039,-0.006 -0.081,-0.021 -0.112,-0.012 -0.071,0.014 -0.145,0.152 -0.205,0.074 0.018,-0.107 0.11,-0.096 0.128,-0.178 0.002,-0.066 -0.05,-0.08 -0.083,-0.1 -0.096,-0.061 -0.175,-0.086 -0.243,-0.027 -0.031,-0.035 -0.063,-0.102 -0.102,-0.072 -0.003,0.086 0.002,0.227 0.047,0.279 0.032,0.037 0.088,0.006 0.107,0.084 -0.025,0.1 -0.096,0.043 -0.132,0.141 -0.022,0.061 0.01,0.123 -0.015,0.182 -0.032,0.076 -0.188,0.104 -0.217,0.02 0.035,-0.1 0.094,-0.02 0.124,-0.113 0.011,-0.039 -0.003,-0.113 -0.025,-0.139 -0.039,-0.047 -0.128,-0.041 -0.177,-0.008 -0.042,0.033 -0.071,0.121 -0.113,0.137 -0.069,0.029 -0.123,-0.047 -0.18,-0.086 -0.112,-0.074 -0.181,-0.107 -0.231,-0.242 -0.014,-0.043 -0.046,-0.113 -0.015,-0.184 0.089,0.055 0.145,0.195 0.251,0.232 0.04,0.012 0.076,-0.037 0.12,-0.041 0.046,-0.006 0.078,0.059 0.115,-0.006 0.04,-0.117 -0.048,-0.141 -0.02,-0.238 0.015,-0.055 0.098,-0.125 0.144,-0.148 0.05,-0.027 0.112,0.006 0.145,-0.043 0.011,-0.111 -0.082,-0.064 -0.126,-0.086 -0.026,-0.012 -0.045,-0.047 -0.072,-0.059 -0.06,-0.023 -0.12,0.041 -0.168,0.047 -0.032,-0.041 -0.008,-0.115 -0.039,-0.158 -0.073,0.023 -0.098,-0.053 -0.138,-0.111 -0.021,-0.027 -0.052,-0.049 -0.066,-0.072 -0.034,-0.057 -0.024,-0.164 -0.064,-0.232 -0.023,-0.041 -0.082,-0.062 -0.13,-0.113 -0.083,-0.086 -0.153,-0.203 -0.236,-0.234 -0.06,-0.025 -0.157,0.059 -0.229,0.074 -0.086,0.016 -0.231,0.023 -0.218,0.232 0.087,0.049 0.199,-0.002 0.271,0.047 -0.045,0.125 -0.12,0.209 -0.174,0.289 -0.04,0.061 -0.055,0.109 -0.081,0.127 -0.098,0.072 -0.116,-0.191 -0.168,-0.27 -0.03,-0.043 -0.083,-0.021 -0.12,-0.047 -0.036,-0.021 -0.045,-0.098 -0.101,-0.074 -0.016,-0.049 0.039,-0.145 0.018,-0.174 -0.016,-0.029 -0.072,0.016 -0.094,0.006 -0.022,-0.004 -0.027,-0.039 -0.049,-0.051 -0.039,-0.027 -0.102,-0.014 -0.155,-0.023 -0.057,-0.014 -0.093,-0.068 -0.139,-0.094 -0.065,-0.039 -0.181,-0.002 -0.226,-0.072 -0.023,-0.039 0,-0.143 -0.017,-0.188 -0.013,-0.033 -0.043,-0.039 -0.056,-0.072 -0.014,-0.033 -0.014,-0.084 -0.025,-0.111 -0.033,-0.084 -0.111,-0.119 -0.148,-0.191 -0.017,-0.031 -0.006,-0.096 -0.021,-0.135 -0.016,-0.037 -0.059,-0.039 -0.074,-0.08 -0.009,-0.027 0,-0.076 -0.009,-0.104 -0.01,-0.035 -0.045,-0.053 -0.057,-0.08 -0.012,-0.035 0.008,-0.104 -0.01,-0.129 -0.024,-0.039 -0.093,-0.025 -0.132,-0.043 -0.041,-0.018 -0.065,-0.062 -0.104,-0.094 -0.047,-0.035 -0.128,-0.035 -0.181,-0.07 -0.053,-0.035 -0.124,-0.051 -0.196,-0.045 -0.029,0.002 -0.175,0.07 -0.199,0.066 -0.497,0.566 -0.814,1.012 -1.219,1.648 0.019,-0.008 0.032,0.055 0.047,0.059 0.046,0.008 0.079,0.068 0.14,0.057 0.063,-0.016 0.133,-0.098 0.163,-0.08 0.045,0.031 -0.012,0.191 0.02,0.262 0.049,0.115 0.137,0.119 0.146,0.256 0.008,0.107 -0.075,0.324 -0.093,0.416 -0.007,0.037 -0.085,0.084 -0.112,0.127 -0.019,0.031 -0.035,0.088 -0.059,0.129 -0.056,0.094 -0.124,0.123 -0.125,0.199 0,0.078 0.119,-0.002 0.1,0.104 -0.018,0.104 -0.086,0.086 -0.131,0.145 -0.051,0.066 -0.066,0.143 -0.093,0.201 -0.011,0.025 -0.043,0.086 -0.058,0.107 -0.033,0.041 -0.073,-0.002 -0.095,0.051 -0.037,0.092 0.014,0.24 -0.007,0.346 -0.016,0.072 -0.079,0.178 -0.105,0.234 -0.073,0.152 -0.156,0.275 -0.244,0.408 -0.08,0.123 -0.18,0.221 -0.245,0.371 -0.036,0.082 -0.06,0.197 -0.093,0.277 -0.046,0.113 -0.093,0.148 -0.139,0.264 -0.043,0.189 -0.068,0.365 -0.096,0.541 -0.026,0.178 -0.061,0.348 -0.077,0.506 -0.009,0.086 -0.021,0.256 -0.017,0.338 0.007,0.1 0.038,0.102 0.067,0.188 0.022,0.068 0.052,0.207 0.053,0.283 10e-4,0.082 -0.014,0.184 -0.016,0.268 -0.002,0.086 0.005,0.18 0.021,0.242 0.017,0.076 0.079,0.189 0.083,0.26 0.004,0.066 -0.047,0.027 -0.043,0.096 0.007,0.104 0.133,0.221 0.155,0.334 0.01,0.055 -0.011,0.09 0,0.139 0.009,0.059 0.066,0.145 0.082,0.176 0.029,0.061 0.05,0.141 0.094,0.164 0.03,-0.035 -0.033,-0.137 -0.051,-0.205 -0.021,-0.07 -0.026,-0.176 -0.052,-0.287 -0.015,-0.072 -0.053,-0.15 -0.068,-0.217 -0.017,-0.072 -0.021,-0.131 -0.036,-0.191 -0.018,-0.057 -0.063,-0.16 -0.071,-0.217 -0.03,-0.195 0.099,-0.15 0.123,0.01 0.015,0.096 0.002,0.15 0.017,0.242 0.012,0.074 0.071,0.184 0.103,0.268 0.034,0.09 0.063,0.174 0.095,0.242 0.005,0.047 0.006,0.053 0.008,0.098 0.042,0.102 0.092,0.199 0.135,0.301 0.06,0.137 0.153,0.314 0.148,0.467 -10e-4,0.045 -0.035,0.062 -0.031,0.119 0.004,0.045 0.046,0.125 0.087,0.186 0.042,0.066 0.077,0.129 0.112,0.17 0.023,0.027 0.065,0.057 0.095,0.092 0.039,0.047 0.072,0.109 0.116,0.164 0.056,0.062 0.13,0.129 0.197,0.199 0.066,0.07 0.157,0.16 0.21,0.184 0.054,0.025 0.107,-0.01 0.167,0.016 0.138,0.059 0.213,0.283 0.333,0.389 0.03,0.025 0.072,0.037 0.11,0.061 0.032,0.018 0.055,0.039 0.087,0.059 0.066,0.043 0.148,0.064 0.202,0.104 0.081,0.055 0.144,0.221 0.216,0.279 0.004,0.045 -0.005,0.1 0.01,0.133 0.033,0.057 0.08,0.057 0.135,0.1 0.068,0.051 0.09,0.15 0.153,0.191 0.021,0.012 0.078,0.021 0.114,0.037 0.088,0.045 0.113,0.156 0.198,0.145 0.057,-0.01 0.054,-0.062 0.063,-0.113 0.038,-0.035 0.079,-0.092 0.136,-0.084 0.093,0.01 0.1,0.102 0.132,0.191 0.019,0.053 0.066,0.104 0.078,0.158 0.02,0.092 0,0.361 -0.022,0.414 -0.024,0.064 -0.117,0.084 -0.175,0.156 -0.027,0.031 -0.042,0.086 -0.063,0.109 -0.037,0.039 -0.092,0.047 -0.119,0.086 -0.017,0.025 -0.035,0.074 -0.05,0.105 -0.047,0.098 -0.105,0.162 -0.073,0.281 0.013,0.051 0.083,0.086 0.082,0.145 -10e-4,0.062 -0.137,0.121 -0.15,0.193 -0.01,0.057 0.037,0.154 0.05,0.223 0.011,0.053 0.104,0.09 0.131,0.123 0.048,0.061 0.086,0.146 0.13,0.221 0.086,0.143 0.152,0.312 0.236,0.445 0.043,0.068 0.109,0.131 0.14,0.205 0.016,0.035 0.014,0.08 0.028,0.111 0.05,0.109 0.271,0.23 0.387,0.287 0.054,0.027 0.113,0.037 0.162,0.062 0.075,0.043 0.225,0.15 0.263,0.215 0.033,0.055 0.054,0.191 0.07,0.281 0.022,0.117 0,0.207 0.006,0.33 0.005,0.066 0.03,0.139 0.03,0.205 0,0.025 -0.013,0.041 -0.013,0.066 -0.004,0.086 0.021,0.176 0.013,0.258 -0.004,0.049 -0.018,0.09 -0.013,0.127 0.003,0.041 0.024,0.076 0.028,0.111 0.003,0.041 -0.011,0.092 -0.008,0.125 0.01,0.086 0.076,0.152 0.093,0.23 0.013,0.062 0.022,0.195 0.013,0.27 -0.003,0.041 -0.029,0.084 -0.036,0.129 -0.004,0.035 0.005,0.07 0,0.105 -0.007,0.051 -0.04,0.086 -0.036,0.135 0.005,0.094 0.11,0.17 0.125,0.266 0.006,0.031 -0.007,0.066 -0.006,0.098 0.002,0.061 0.028,0.109 0.04,0.166 0.017,0.08 -0.003,0.195 0.082,0.23 0.088,-0.029 -0.016,-0.127 0.037,-0.174 0.102,0.031 0.067,0.197 0.095,0.301 -0.04,0.027 -0.088,-0.023 -0.113,0.027 -0.022,0.045 0.033,0.082 0.033,0.113 0.001,0.053 -0.039,0.119 -0.029,0.158 0.015,0.059 0.123,0.043 0.139,0.094 0.017,0.057 -0.037,0.1 -0.038,0.156 0,0.059 0.073,0.162 0.131,0.242 0.026,0.039 0.067,0.062 0.09,0.096 0.02,0.031 0.033,0.082 0.055,0.107 0.023,0.021 0.082,0.035 0.118,0.062 0.061,0.041 0.127,0.146 0.187,0.178 0.026,0.012 0.063,0.02 0.099,0.033 0.043,0.021 0.089,0.059 0.13,0.07 0.115,0.041 0.228,0.07 0.32,0.111 0.035,0 0.066,0 0.1,0 0.018,-0.01 0.084,-0.01 0.104,0 0.004,0 0.008,0 0.013,0 0.056,-0.014 0.111,-0.033 0.125,-0.09 -0.04,-0.102 -0.187,-0.086 -0.284,-0.143 -0.065,-0.037 -0.126,-0.117 -0.173,-0.174 -0.048,-0.053 -0.143,-0.131 -0.143,-0.201 10e-4,-0.059 0.059,-0.07 0.071,-0.127 0.01,-0.037 -0.013,-0.049 0.002,-0.098 0.029,-0.086 0.11,-0.088 0.108,-0.178 -10e-4,-0.15 -0.272,-0.082 -0.274,-0.234 -0.002,-0.102 0.137,-0.104 0.158,-0.199 0.01,-0.049 -0.011,-0.066 -0.011,-0.137 0.018,-0.076 0.094,-0.086 0.11,-0.162 -0.027,-0.051 -0.095,-0.016 -0.139,-0.037 -0.042,-0.027 -0.063,-0.084 -0.055,-0.141 0.074,-0.035 0.213,0.064 0.269,-0.043 0.027,-0.055 -0.025,-0.182 0.013,-0.232 0.025,-0.039 0.161,-0.047 0.213,-0.059 0.076,-0.018 0.162,-0.039 0.207,-0.076 0.045,-0.029 0.118,-0.131 0.11,-0.219 -0.002,-0.043 -0.032,-0.055 -0.062,-0.09 -0.026,-0.027 -0.037,-0.068 -0.056,-0.098 -0.032,-0.049 -0.084,-0.033 -0.099,-0.107 0.103,-0.025 0.257,0.064 0.406,0.012 0.069,-0.023 0.167,-0.184 0.2,-0.246 0.01,-0.02 0.009,-0.047 0.021,-0.074 0.013,-0.027 0.04,-0.049 0.044,-0.062 0.01,-0.037 0.006,-0.066 0.014,-0.086 0.026,-0.066 0.091,-0.09 0.133,-0.141 0.033,-0.035 0.048,-0.078 0.078,-0.113 0.034,-0.041 0.064,-0.076 0.087,-0.107 0.021,-0.111 -0.053,-0.184 -0.024,-0.275 0.036,-0.105 0.213,-0.174 0.335,-0.221 0.042,-0.018 0.085,-0.043 0.119,-0.053 0.086,-0.027 0.191,-0.014 0.27,-0.039 0.13,-0.039 0.146,-0.146 0.21,-0.242 0.032,-0.043 0.073,-0.092 0.078,-0.121 0.005,-0.031 -0.013,-0.053 -0.006,-0.092 0.006,-0.031 0.043,-0.062 0.055,-0.102 0.015,-0.049 0.021,-0.125 0.021,-0.184 0,-0.045 -0.025,-0.088 -0.027,-0.133 -0.009,-0.164 0.065,-0.184 0.133,-0.279 0.034,-0.049 0.045,-0.102 0.069,-0.135 0.113,-0.158 0.308,-0.234 0.293,-0.445 -0.004,-0.07 -0.057,-0.225 -0.117,-0.246 -0.04,-0.016 -0.122,-0.006 -0.172,-0.021 z" />
          </g>
        </g>
        <g
           id="g74">
          <path
             style="fill:#ffffff"
             id="path76"
             d="m 318.484,442.393 c -1.541,1.164 -3.148,2.238 -4.788,3.26 -0.816,0.516 -1.656,0.994 -2.484,1.492 l -2.535,1.406 -2.582,1.318 -2.627,1.229 c -0.871,0.422 -1.779,0.756 -2.667,1.139 -0.888,0.385 -1.792,0.729 -2.705,1.049 -1.807,0.695 -3.667,1.234 -5.52,1.793 -0.929,0.271 -1.877,0.471 -2.815,0.709 l -1.411,0.344 c -0.473,0.102 -0.952,0.178 -1.428,0.268 l -2.859,0.516 -2.887,0.326 -1.444,0.16 -1.452,0.059 -2.905,0.117 -2.903,-0.102 -1.447,-0.053 -1.448,-0.15 -2.897,-0.314 -2.864,-0.502 c -0.477,-0.086 -0.956,-0.16 -1.43,-0.258 l -1.414,-0.338 c -0.94,-0.234 -1.891,-0.43 -2.822,-0.695 -1.858,-0.549 -3.722,-1.082 -5.537,-1.764 -0.918,-0.312 -1.827,-0.646 -2.72,-1.025 -0.893,-0.373 -1.808,-0.699 -2.684,-1.113 l -2.645,-1.205 -2.602,-1.295 -2.556,-1.385 c -0.834,-0.492 -1.682,-0.963 -2.507,-1.473 -1.658,-1.01 -3.275,-2.068 -4.85,-3.232 l -0.376,-0.279 0.377,-0.279 c 1.47,-1.09 2.975,-2.088 4.524,-3.031 1.541,-0.951 3.117,-1.844 4.715,-2.693 1.604,-0.838 3.217,-1.664 4.875,-2.393 1.636,-0.775 3.331,-1.418 5.006,-2.102 1.713,-0.586 3.399,-1.25 5.148,-1.727 0.871,-0.25 1.729,-0.539 2.609,-0.752 l 2.642,-0.631 c 0.875,-0.234 1.772,-0.367 2.664,-0.527 0.893,-0.148 1.781,-0.33 2.678,-0.453 l 2.701,-0.293 1.351,-0.145 1.357,-0.049 2.715,-0.096 c 0.917,-0.018 1.807,0.041 2.712,0.057 1.802,0.088 3.622,0.227 5.41,0.484 0.9,0.102 1.792,0.246 2.682,0.414 0.893,0.148 1.782,0.312 2.663,0.521 1.77,0.373 3.521,0.836 5.252,1.354 1.733,0.514 3.451,1.082 5.137,1.734 1.691,0.637 3.359,1.334 5,2.09 3.29,1.494 6.477,3.207 9.553,5.096 l -0.047,0.076 c -3.101,-1.84 -6.306,-3.502 -9.609,-4.941 -1.646,-0.729 -3.319,-1.398 -5.013,-2.008 -1.691,-0.617 -3.398,-1.191 -5.127,-1.688 -1.726,-0.508 -3.47,-0.957 -5.231,-1.318 -0.876,-0.203 -1.761,-0.363 -2.649,-0.506 -0.884,-0.162 -1.772,-0.303 -2.667,-0.398 -1.784,-0.246 -3.567,-0.373 -5.366,-0.451 -0.898,-0.012 -1.811,-0.066 -2.697,-0.043 l -2.692,0.109 -1.346,0.053 -1.339,0.15 -2.677,0.305 c -0.889,0.125 -1.77,0.311 -2.654,0.463 -0.883,0.162 -1.772,0.299 -2.64,0.535 l -2.618,0.641 c -0.872,0.217 -1.723,0.508 -2.585,0.76 -1.732,0.48 -3.404,1.15 -5.101,1.74 -1.66,0.688 -3.338,1.334 -4.959,2.111 -1.642,0.73 -3.239,1.561 -4.827,2.4 -3.157,1.705 -6.249,3.582 -9.115,5.707 l 0,-0.559 c 1.524,1.141 3.136,2.207 4.771,3.215 0.815,0.508 1.654,0.98 2.479,1.473 l 2.53,1.387 2.576,1.301 2.62,1.209 c 0.868,0.416 1.773,0.744 2.659,1.119 0.885,0.379 1.785,0.717 2.694,1.031 1.799,0.686 3.646,1.225 5.488,1.779 0.923,0.268 1.865,0.467 2.797,0.703 l 1.401,0.344 c 0.47,0.1 0.945,0.174 1.417,0.264 l 2.839,0.512 2.859,0.324 1.431,0.158 1.447,0.059 2.885,0.117 2.883,-0.102 1.441,-0.051 1.435,-0.152 2.869,-0.311 2.844,-0.498 c 0.473,-0.086 0.949,-0.158 1.42,-0.256 l 1.404,-0.336 c 0.934,-0.232 1.878,-0.426 2.804,-0.689 1.847,-0.545 3.698,-1.08 5.505,-1.752 0.915,-0.305 1.82,-0.633 2.709,-1.004 0.89,-0.369 1.801,-0.688 2.675,-1.096 l 2.637,-1.186 2.596,-1.277 2.551,-1.365 c 0.833,-0.486 1.679,-0.951 2.502,-1.455 1.652,-0.993 3.274,-2.044 4.831,-3.184 z" />
          <g
             id="g78">
            <polygon
               style="fill:#ffffff"
               id="polygon80"
               points="310.032,441.932 318.484,442.393 314.659,434.842 " />
          </g>
        </g>
      </g>
    </g>
  </g>
</svg>
